<svg version="1" xmlns="http://www.w3.org/2000/svg" width="800" height="800" viewBox="0 0 600.000000 600.000000"><path d="M264.7 46.2c-1 1.1-1.7 2.2-1.4 2.4.2.2 1.2-.5 2.2-1.6 2.3-2.6 1.6-3.3-.8-.8z"/><path d="M259.3 51.5c-1 1.5-3.1 2.7-4.8 2.9-9.7 1.2-13.2 2.1-16.3 3.9-2.8 1.7-3.5 1.8-4.3.6-.6-.9-.9-1-.9-.2 0 .7-.7 1-1.5.7-.8-.4-1.5-.1-1.5.5s-.7.8-1.5.5c-1.1-.5-1.3-.2-.9 1.1.8 1.9-1.6 3.7-5.3 4.1-2.8.3-6.5 2.3-4.3 2.4.8 0 2.1-.4 2.9-.9 1.6-1.1 4.3-.3 3.6 1-.3.4-1.3.5-2.2.2-1.2-.5-1.4-.3-.8.7.5.8.4 1.1-.2.7-.5-.3-2.2 0-3.6.8-2.7 1.4-2.7 1.3-2.1-1.3.9-3.6 1.3-4.2 2.9-4.2.7 0 1.5-.7 1.8-1.4.4-1.1.1-1.3-1.1-.9-2.4.9-6.2 3.9-5.7 4.5.3.3-.5 1.3-1.7 2.4-1.9 1.6-2 1.6-.9.1.8-.9 1.1-2 .8-2.3-.3-.3-1.3.8-2.2 2.6-.9 1.8-1.9 2.9-2.2 2.6-.8-.8-3.3 1.4-3.3 2.8 0 .6.8.2 1.7-.9 1.4-1.8 1.5-1.8.9-.2-.3 1-.6 2.7-.6 3.8 0 1-.5 1.9-1.1 1.9-.6 0-.9-.7-.6-1.4.4-1 .1-1.3-.9-.9-.7.3-1.4 1.1-1.4 1.9 0 2.1-2 1.7-2.1-.4 0-1.1-.5-.7-1.4 1.3-.8 1.6-1.4 2.5-1.5 2 0-.6-.5-.3-1 .5-.7 1.2-.9 1-.7-.7 0-1.2.6-2.1 1.2-2 .5.1 1-.5 1-1.4 0-.9.6-2.4 1.4-3.3 1.2-1.4 1.1-1.6-.3-1.6-.9 0-1.9.7-2.2 1.5-.4.8-1.1 1.5-1.6 1.5s0-1.6 1.2-3.5 1.8-3.5 1.3-3.5c-1 0-7.3 10.3-7.3 11.9 0 .6-.4 1.1-.9 1.1-.4 0-1.3 1.9-1.8 4.2-.9 3.6-1.1 3.8-1.2 1.5 0-1.6-.5-2.5-1.1-2.2-.5.3-.3-1.3.6-3.7l1.5-4.2-2.5 2.3c-1.4 1.3-3.1 4-3.7 6-.6 2-1.5 4-2 4.5-.5.6-.9 2.2-.9 3.6s-.4 3-.9 3.6c-.5.5-1.1 2-1.3 3.4-.2 1.8-1.3 2.8-4.3 4-2.7 1-4 2.1-4.1 3.5-.1 1.1-.5 2.9-1 3.9-.5 1.3-.4 1.7.4 1.2 1.3-.8 1.3 3.3-.1 5.1-.5.7-.6 1.3-.2 1.3.4 0-.4 1.5-1.7 3.2-3.3 4.3-4.2 12.1-2 16.3 1.3 2.3 1.7 2.6 2 1.2.4-1.9 1.7-2.3 2.7-.7.3.5.2 1-.3 1-1.2 0-1 25 .2 26.8.5.8.9 3.3 1.1 5.5.3 5.3 2.4 19 3.8 24.2.6 2.2 1.2 4.9 1.4 5.9.2 1.1 1 4.3 1.9 7.1.8 2.9 1.4 5.7 1.2 6.1-.3 1.3 3.2 11.5 4.8 14.2 1.7 2.6 3.5 11.2 2.4 11.2-.4 0-1.3-.7-2-1.5-1.5-1.8-7.1-2-8.8-.3-2.1 2.1-1.3 2.9 1.3 1.2 2.4-1.6 2.7-1.6 4.8.2 1.2 1 2.8 2.5 3.5 3.3 1 1.3 1.2 1.2 1.3-.5 0-1.6.2-1.6 1 .5s1.2 10 .9 24.2c-.1 4.1-.6 6.3-2 7.9-2 2.4-2.7 5-1.2 5 .5 0 1.9-1.2 3.2-2.7 2-2.3 2.3-3.8 2.4-10.9.1-4.5.4-8.6.8-8.9.4-.4.4-1.5 0-2.4-.7-1.5-.8-17.9-.2-33.4.2-3.7 0-7-.3-7.3-.3-.4 0-1.8.7-3.3.7-1.4 1.6-4.3 2-6.3.7-4.1 3.6-7.7 7.6-9.8 1.4-.7 2-1.5 1.4-1.7-.7-.2-.9-1.3-.6-2.5.4-1.6.2-1.9-.9-1.3-.8.5-.5-.1.5-1.3 1.8-2.1 1.5-2.7-.9-2.2-.5.1.5-1.4 2.3-3.3 2.9-3 3.2-3.7 2.3-6.1-.9-2.1-.6-4.2 1.3-10 1.4-4.1 3.2-8.8 4-10.5 1.9-3.6 2-4.5.4-3.5-.7.4-.8.3-.4-.5.4-.6 1.1-.9 1.6-.6.5.3 1.1.1 1.5-.4.5-.9 6.2-4.1 7.2-4.1.2 0 .1.4-.2 1-.3.5 0 1 .9 1 .8 0 1.6-.4 1.8-1 .2-.5 2.2-1.1 4.5-1.2 3.4-.1 4.1-.4 3.2-1.5-1.3-1.5.2-1.8 1.8-.2 1.5 1.5 4.5 1.8 6.6.7 1.2-.6 2.4-.4 3.9.7 2.9 1.9 4.8 2 2.2 0-1.8-1.5-1.8-1.5 0-.8 1.1.4 1.7.2 1.3-.3-.3-.5.2-1 1.1-1 .9-.1 3.7-.3 6.2-.4 2.5-.2 5.6 0 6.9.4 1.8.6 2.2.5 1.5-.5-.7-1.2-.5-1.2.9 0 .9.7 2.3 1.1 3.1.8.8-.3 2.2 0 3.2.8 1.3.9 2.4 1 3.7.4.9-.6 2.3-.7 2.9-.3 1.9 1.2 5.7 1.4 6.3.3.4-.5 1.7-.9 3.1-.9 1.4 0 2.2.4 1.9 1-.3.5-.2 1 .4 1 .5 0 1.3-.5 1.6-1 .4-.6 1.1-.7 1.7-.4.6.4 1.4 0 1.9-.7.7-1.1 1.3-1.1 3.8.4 1.6.9 4.6 1.7 6.6 1.7 2.6 0 3.4.3 2.9 1.2-.6 1-.4 1 .7.2 1.3-1.1 11.1-2.6 17.2-2.6 1.5-.1 2.7-.6 2.7-1.2s.4-.5.9.3 1.8 1.2 3.1.8c1.2-.3 4.3.1 7 .9 4.7 1.4 9.6 1.3 13.3-.1.9-.4 1.7-.3 1.7.3s-.6 1.2-1.2 1.5c-.7.2-1 .8-.6 1.2.4.4 1.3.3 2-.1 2.1-1.4 5.1-1 7.2.8 2.3 2.1 3.6 2.3 3.6.5 0-.7.3-.8.8-.2 1.3 1.8 5.3 3.6 6.4 2.9.7-.4.8-.3.4.4-.6 1 1.5 1.7 2.8.9.5-.2 4.6 4.8 4.6 5.6 0 .3 1.5 2.1 3.3 4 4.8 5.2 5.9 6.7 4.7 6.7-.5 0-1 .5-1 1.1 0 .5.5.7 1 .4.6-.4 2.3.7 3.9 2.4l2.9 3.1h-2.5c-1.5 0-2.2.4-1.7 1.1.3.6 1.4.9 2.3.6 1.4-.3 1.6.7 1.8 6.6.2 7.8 1 12 2.1 11.3.4-.2.9.5.9 1.7.1 1.2.6 2.3 1.1 2.5.6.2.8 1.1.5 2.1-.3 1.2.2 2 1.6 2.4 1.2.3 2.1 1.2 2.1 2.1 0 .9.7 2.8 1.6 4.1.9 1.4 1.2 2.5.8 2.5-.5 0-.4.4.3.8.6.4 1.4 4.1 1.7 8.2.5 7.5 1 34.6.6 36.5-.1.5-.1 1.3 0 1.7.6 2.3.2 8.1-.6 8.6-.5.4-1 2.4-1.1 4.6-.2 3.5-.1 3.7 1.5 2.5 1-.8.9-.4-.4 1.1-1.8 2-2.1 3.6-2 8.2.2 3.2.6 6.1.9 6.5.4.3-.1 1.5-1 2.5-1.5 1.7-1.5 1.8-.1 1.3s1.6-.1 1.3 2.7c-.2 1.8-.4 3.9-.4 4.6-.1.7-.5 1.1-1 .7-.5-.3-1.9.7-3.1 2.2l-2.2 2.8 2.4.5c2.6.7 3.5 4 1.8 6.7-.9 1.5-1 1.3-.6-1.4.4-2.2.1-3.3-1-3.7-2.3-.9-3.4-.7-3.4.4 0 .5.6 1 1.4 1 1.5 0 1.6 3.5.2 5.8-.4.7-.3 1.9.4 2.7.8 1 .8 1.5-.1 2-.8.6-.8.9.1 1.5 1.7 1 .3 3-2.1 3-1.1 0-1.9.7-1.9 1.7s.4 1.4.8.8c.4-.6 1.3-1.1 2.1-1.3.9-.2 1.1.2.6 1.5-.4 1-1.1 3.8-1.5 6.3-.9 5.8-2 8.1-3.2 7.4-.6-.4-.8.2-.3 1.5.8 2.7-5.1 15.4-6.7 14.5-.7-.4-.8-.2-.4.4.4.6-.1 2.6-1.1 4.4-.9 1.8-1.6 3.7-1.5 4.1.1.5-.2.6-.7.2-.6-.3-1.5.4-2.1 1.5-.6 1.2-1.8 1.9-2.5 1.6-1.5-.5-3 2.7-2 4.4.7 1.2 2.6 1.4 2.4.2-.3-1.9.2-2.3 1.6-1.2 1.3 1.1 1.3 1.4 0 2.7-2 1.9-1.9 3.7.1 2.9 1.3-.5 1.5-.1 1.2 2.4-.3 1.7-.1 3.3.4 3.6.4.3.8-1.2.8-3.4 0-7.1 1.9-14.2 6.4-23.5 6.2-13.2 8.3-18.9 10.7-30.2 1.7-7.9 2.7-10.3 4.7-11.9 1.3-1.1 3.1-3.5 3.9-5.3 1.4-3.4 3-22.4 1.8-21.1-.3.3-.8 3.9-1 8-.7 11.3-2.7 17.8-5.6 17.8-.6 0-.8-.4-.5-.9.6-.9 1.2-4.8 2.1-14.1.4-3 1-7 1.5-8.8.5-1.9.6-4 .3-4.8-.3-.9.5-1.8 2.3-2.4 2.1-.8 2.4-1.4 1.6-2.2-1.5-1.5-1.6-7.8-.2-7.8 1.6 0 1.1-3.6-.9-7.2-1.6-2.7-2-5.2-2-14.1 0-7.4.5-11.6 1.5-13.5.7-1.5 1.4-3.2 1.4-3.8 0-1.8 4.3-2.5 5.8-1 1.1 1.1.8 2.2-1.7 6.3-2.7 4.3-2.9 5.4-2.1 8.3.5 1.8.7 3.6.5 4-.3.4.2 1.3 1 2 1.3 1.1 1.5.7 1.6-2.1 0-1.9.4-4.3.9-5.4l.9-2 .1 2c.3 2.9 1.7-3 1.9-7.6.1-4.9-3-8.9-7.1-8.9-2.5 0-2.9-.3-2.3-1.8.5-.9 1.6-3.8 2.5-6.5.9-2.6 2-5 2.4-5.4.3-.3.6-1.9.6-3.4s.5-3.1 1-3.4c.6-.4.8-1 .5-1.5-.3-.5.1-2.6.9-4.7 1.9-5.3 4.8-15.3 5.1-17.7.1-1.2.5-3.7.9-5.6.3-1.9.8-5.6 1.1-8.1.2-2.5.9-6.6 1.4-9.1 1.6-6.9 2.2-15 1.3-16.2-1-1.3-.9-5.3.2-7.9.5-.9.4-2.3-.1-3-1.3-1.6-.8-17 .5-17.5.6-.2 1.3.2 1.7.7.9 1.6 2.8 1.3 2.2-.3-.4-1 .3-1.3 2.4-1.1 3.8.3 3.8-1.1-.1-1.9-3.8-.7-3.9-2.6-.2-2.7 1.9-.1 1.5-.4-1.7-1-4.9-.9-6.5-1.9-3.3-1.9 1.1 0 2.4-.5 2.8-1.2.5-.7.2-.9-.8-.5-2.1.8-5.8-2-5.8-4.3 0-1-.4-2.2-1-2.5-.5-.3-1-1.7-1-3 0-3-1-5.5-2.2-5.5-.5 0-.6.9-.3 2s.4 2 .1 2c-.9 0-6.6-9.1-6.6-10.6 0-.7-.4-1.4-.9-1.4s-1.5-1.6-2.2-3.5c-.9-2.3-1.6-3.2-2.3-2.5-1.2 1.2-3.9 1.3-3.2.1.8-1.2-3.9-2-7.7-1.2-2.1.5-4.4.2-6.7-.8-4.4-2-13.7-8.7-14.9-10.8-.6-1.2-2.4-1.6-7.2-1.5-9.3.2-13.8-1.3-15-4.7-1.2-3.3-4.5-5.1-9.5-5.1-1.9 0-3.3-.3-3.1-.8.3-.4-1.5-.5-3.9-.3-3.1.2-5.9-.4-9-1.9-2.7-1.2-6.7-2.1-9.6-2.2-3.3 0-5.1-.5-5.5-1.4-.3-.8-.9-1.2-1.3-.9-.4.3-6.1.7-12.6 1.1-6.5.3-12.2.8-12.6 1-.5.3-2.2.3-3.8-.1-2.6-.6-2.8-.9-1.7-2.6.7-1.1 1.7-1.7 2.4-1.5.7.3 1.5.1 1.8-.4.3-.5-.4-1.2-1.6-1.5-3.1-1-8.9-1.2-8.9-.3 0 .5-.7.8-1.5.8-.9 0-3.5.9-5.7 2-4.5 2.2-6.2 2.6-3.8.9 1.1-.8.6-.9-1.8-.4l-3.4.7 1.7-3.1c1.9-3.7 1.3-4-1.2-.6zm-45.6 23.7c-.3.7-.5.2-.5-1.2s.2-1.9.5-1.3c.2.7.2 1.9 0 2.5zm158-.6c-.3.3-1.2.4-1.9.1-.8-.3-.5-.6.6-.6 1.1-.1 1.7.2 1.3.5zm-188 15.6c-.3.8-.6.5-.6-.6-.1-1.1.2-1.7.5-1.3.3.3.4 1.2.1 1.9zM410.3 93c.1 1.9-.3 3.5-1 3.7-.7.3-1.3-.3-1.3-1.2 0-.9-.4-1.4-.9-1.1-1.8 1.1-2.1-2.7-.4-4.4 2.2-2.2 3.3-1.3 3.6 3zm-5.8 0c.3.5.1 1-.4 1-.6 0-1.1-.5-1.1-1 0-.6.2-1 .4-1 .3 0 .8.4 1.1 1zM172 108.4c0 .2-.7.7-1.6 1-.8.3-1.2.2-.9-.4.6-1 2.5-1.4 2.5-.6zm67.5 34.6c.3.6-.1.7-.9.4-1.8-.7-2.1-1.4-.7-1.4.6 0 1.3.4 1.6 1zm40.5 5c0 .5-.4 1-1 1-.5 0-1-.5-1-1 0-.6.5-1 1-1 .6 0 1 .4 1 1zm32 0c-2 1.3-3.3 1.3-2.5 0 .3-.6 1.4-1 2.3-1 1.5 0 1.5.2.2 1zm-111 26c0 .5-.5 1-1.1 1-.5 0-.7-.5-.4-1 .3-.6.8-1 1.1-1 .2 0 .4.4.4 1zm216.7 72.2c-.3.8-.6.5-.6-.6-.1-1.1.2-1.7.5-1.3.3.3.4 1.2.1 1.9zm-15.9 65.2c-.7.8-1.5 1.2-1.7 1.1-.5-.6 1-2.5 2-2.5.5 0 .4.6-.3 1.4zM382 379c0 .5-.5 1-1.1 1-.5 0-.7-.5-.4-1 .3-.6.8-1 1.1-1 .2 0 .4.4.4 1z"/><path d="M262.9 51.7c-1.3 1.6-1.2 1.7.4.4 1.6-1.3 2.1-2.1 1.3-2.1-.2 0-1 .8-1.7 1.7zM199.6 71.1c-1.1 1-1.5 1.9-.8 1.9 1 0 4.2-2.7 4.2-3.6 0-.9-1.6-.2-3.4 1.7zM434.3 115.7c.9.2 2.5.2 3.5 0 .9-.3.1-.5-1.8-.5-1.9 0-2.7.2-1.7.5zM283.1 150.6c0 1.1.3 1.4.6.6.3-.7.2-1.6-.1-1.9-.3-.4-.6.2-.5 1.3zM233 217l2.5.8-2.6.1c-2.5.1-7.5 3-5.2 3.1.6 0 1.5-.5 1.8-1 .3-.6 1.1-1 1.8-1 .6 0 .1.7-1.1 1.6-1.2.8-2.5 1.3-3 1.1-1.2-.8-5.4 1.2-4.7 2.3.3.6-.4 1-1.8 1s-2.7.7-3.1 1.5c-.3.8-1.4 1.5-2.4 1.5-1.4 0-1.9.7-1.9 2.5 0 2.1.2 2.3 2.1 1.4 1.8-.9 1.8-.7-.4 1.1-2.6 2.3-4 6.1-1.4 3.9 1-.8 1.4-.8 1.4-.1 0 .6-1.2 1.8-2.7 2.5-2.5 1.4-2.4 1.4 2.5 1.3 2.9-.1 5.2-.2 5.2-.4 0-.1-1-.7-2.2-1.2-2-.7-1.7-.9 1.7-1 2.9 0 3.6-.3 2.5-1-1.2-.8-1.2-1 .3-1.6 1-.3 3.1-.4 4.7-.1 2.4.5 2.8.3 2.3-.9-.5-1.3-.1-1.5 1.8-1 1.3.3 1.8.3 1.2 0-2.5-1.1-1.3-2.3 1.3-1.4 3.6 1.4 4.2 1.2 1.8-.8-2-1.7-2-1.7 2-1.6 7.7.2 15.5 1.6 17.3 3.1 1 .8 1.3 1.2.6.9-.6-.4-1.4-.2-1.8.3-.3.6-1.3.7-2.2.4-1.2-.5-1.5-.2-1 .9.6 1.7-3.2 2.8-11.5 3.2-2.2.1-4.3.6-4.6 1.2-1.1 1.5-8 6.4-9.1 6.4-1.6 0-2.3 3.7-1 5.8 1.7 2.7 16.7 5 16.2 2.4-.3-1.3.7-1.5 3.1-.6.9.3 1.6 1.3 1.6 2.1s.4 1.2.9.8c1.6-.9.8-4.5-1-4.5-1 0-2.6-1.1-3.7-2.5-1.1-1.3-2.3-2.1-2.8-1.7-.5.4-.5.3-.1-.3.5-.6 1.2-1 1.5-.9.4 0 1.5-.9 2.4-2l1.7-2.1.1 2.3c0 1.3 1.3 3.6 2.9 5.2 2 2 2.5 3.2 1.8 3.9-.8.8-.8 1.1 0 1.1.7 0 1.5-.4 1.8-1 .3-.5 1.7-.9 3-.8 2.3.2 2.5 1.3.3 1.3-.6 0-1.3.6-1.6 1.3-.4 1.3 4.2 1.2 11.3-.3 2.5-.5 2.7-.4 1.3.5-3.3 2.1-2 3.2 3.4 2.8 5.8-.3 9.2-2.6 8.1-5.4-.4-1.2-.3-1.5.5-1 1.6 1 1.6-1.6 0-3.2-.9-.9-.8-1.2.5-1.2.9 0 1.7-.3 1.7-.8 0-.4 1-1.2 2.2-1.7 2.2-1 5.5-9.5 3.6-9.5-1.5 0-3.8-2.7-3.8-4.4 0-.9-.4-1.6-1-1.6-.5 0-1.1-1.9-1.1-4.3-.1-3.8-.2-4-.8-1.2l-.7 3-.8-3.2c-.4-1.7-1.3-3.6-2-4.2-1-.8-1.2-.3-.9 2.2.3 2.6.2 2.8-.6 1.2-1.3-3-3.8-4.9-4.6-3.5-.5.8-1.4.6-3.1-.5-2.3-1.5-2.9-1.2-2.4 1 .1.5-.7.2-1.7-.8-1.7-1.4-3.4-1.6-11.4-1.2-6.7.4-9 .2-7.9-.5 1.1-.8.5-.9-2.2-.4-2.5.4-3.8.2-3.8-.5 0-.6-1.2-1.1-2.7-1l-2.8.1 2.5.8zm15.4 11.8c.3.5-.8.6-2.5.4-1.6-.2-2.9-.6-2.9-.8 0-.8 4.9-.4 5.4.4zm-24.7 2.8c-.3.3-1.2.4-1.9.1-.8-.3-.5-.6.6-.6 1.1-.1 1.7.2 1.3.5zm40.6 11.8c2.8 2.1 2.2 6.2-1 7.4-1.6.5-3.7 1.4-4.8 1.8-1.7.7-1.7.5.3-1.6 2.5-2.7 3.7-6.3 2.7-7.9-.9-1.5.6-1.3 2.8.3zm-13.3 1.1c0 .8-.7 1.5-1.5 1.5s-1.5-.5-1.5-1.1c0-.5.5-.7 1-.4.6.3 1 .1 1-.4 0-.6.2-1.1.5-1.1s.5.7.5 1.5zm8-.5c0 .5-.4 1-1 1-.5 0-1-.5-1-1 0-.6.5-1 1-1 .6 0 1 .4 1 1zm11 3.9c0 .5-.7 1.2-1.6 1.5-1.4.5-1.5.4-.4-.9 1.4-1.7 2-1.9 2-.6zM363 218c0 .5-1.3.7-3.2.3-2.4-.5-2.9-.3-2.3.7.6 1 .2 1.1-1.9.6-1.6-.4-2.6-.2-2.6.4 0 .6-.5.8-1 .5-.6-.4-2.5-.8-4.2-1-1.7-.3-3.3-.7-3.6-.9-.2-.3-1.8.4-3.3 1.5-1.6 1.1-2.9 1.6-2.9 1 0-.6.5-1.1 1-1.1.6 0 1-.4 1-.9s-1.5-.5-3.5-.1c-2.2.5-3.5.4-3.5-.2 0-.7-.4-.7-1.3 0-.7.6-1.8.7-2.6.2-.9-.5-2.7-.1-4.8 1.1-1.8 1-4.1 1.9-5.1 1.9-1.4 0-1.5.2-.2 1 1.2.8 1.2 1-.4 1.6-1.1.4-1.6 1.3-1.3 2.6.4 1.2-.3 2.7-1.8 4-2.8 2.5-4.3 8.7-2.3 10.3.7.5 1.9 2.3 2.6 3.8.6 1.5 1.7 2.5 2.2 2.2.6-.3 1.3.1 1.6.9.3.9 1 1.3 1.5 1 .5-.3.9.2.9 1s-.9 1.8-2.1 2.1c-2 .7-2 .8 1.2 3.7 1.8 1.6 4.6 3.2 6.3 3.5 4.8.9 9.7.7 10.4-.3.8-1.1 2.9-1.4 9.7-1.6 6.4-.1 7.3-.7 4-2.4-3.2-1.7-3.8-1.7-3-.4.4.6-.1.7-1.1.3-1.5-.5-1.4-.7.2-1.6 4-2.1 6.4-5.1 6.4-7.9v-2.9l3 2.1c4 2.9 3.8 4.3-1 6.5-3.9 1.8-7.1 4.5-3.7 3.2.8-.3 2.1 0 2.7.8.8.9 4 1.5 10 1.7l8.8.3 1.2-3.4c1.2-3.2 1.1-3.6-1-5.3-1.2-1-1.9-1.8-1.4-1.8.4 0-.7-1.6-2.6-3.5-1.9-2-4-3.3-4.8-3-.7.3-2.5.2-3.9-.1-1.9-.5-2.2-.9-1.1-1.6.9-.7.6-.8-1.1-.4-3.2.7-12.2-1.4-11.4-2.7.4-.6 0-.8-1-.4-1.1.4-1.7.1-1.7-.9 0-.8.9-1.8 2-2.2 3.1-1.1 19.2-.5 20 .8.4.7 1.5 1 2.5.8 2.4-.4 3.1 1.9.8 2.6-1 .3 0 .3 2.2.1 2.3-.3 3.4-.1 2.7.4-1.8 1.1.9 3.4 3.1 2.5.8-.3 1.8-.1 2.2.5.3.7 0 .8-.9.5-.9-.3-1.6-.1-1.6.5 0 1 1.4 1.5 3.3 1.2.4-.1.7.4.6 1.1-.3 2.9.2 3.5 2.6 3 1.4-.2 2.5-1.1 2.5-1.8 0-.8.7-1.4 1.6-1.4.8 0 1.2-.5.8-1.1-.3-.6-1.9-.9-3.5-.5-4 .8-3.7-1 .4-1.9 2.3-.5 2.7-.9 1.4-1.2-1.3-.3-1.6-1-1.2-2.1 1.4-3.7.8-5-3-6.6-1.9-.8-3.5-2-3.5-2.6 0-.6-1.9-2-4.2-3-2.4-1-5.8-3-7.7-4.4-3.7-2.8-5.1-3.2-5.1-1.6zm22.1 15.7c1.3 1.5 1.2 1.5-.8.4-2.4-1.2-2.9-2.1-1.4-2.1.5 0 1.5.7 2.2 1.7zm-41.8 4c-.7.2-1.9.2-2.5 0-.7-.3-.2-.5 1.2-.5s1.9.2 1.3.5zm17.3 4.8c1 .8 1.5 1.4.9 1.4-.5 0-1.9-.6-2.9-1.4-1.1-.8-1.5-1.5-1-1.5.6 0 1.9.7 3 1.5zm-23.4 2.1c-.3 1.7.3 3.6 1.7 5.5 2.5 3.3 2.5 3.3-2 1.7-3.3-1.1-4.9-2.4-4.9-4.1 0-.7 4.8-5.7 5.5-5.7.1 0 0 1.2-.3 2.6zm13.3.3c-.3.6-1.1.8-1.7.5-.6-.4-.5-.9.3-1.5 1.6-1 2.3-.4 1.4 1zm-8.5.1c0 .5-.7 1-1.5 1s-1.5-.5-1.5-1c0-.6.7-1 1.5-1s1.5.4 1.5 1zm24.8 2.5c-.3.3-.9-.2-1.2-1.2-.6-1.4-.5-1.5.5-.6.7.7 1 1.5.7 1.8zm-35.4 2.1c.4 1 .1 1.4-.6 1.2-1.5-.5-2.3-2.8-1-2.8.5 0 1.3.7 1.6 1.6zm12.6 4.2c0 .5-.7.9-1.5.9s-1.2-.4-.9-.9c.3-.4.9-.8 1.5-.8.5 0 .9.4.9.8zM171.1 245.9c0 .7.5 4.3 1.1 8 1.1 5.8 1.3 6.2 1.9 3.6l.7-3 .1 2.7c.1 3.9 1.8 3.5 2.5-.7.5-2.7.2-4.1-1.5-6.5-1.5-2-2.5-2.6-3-1.8-.4.7-.9.2-1.2-1.3-.2-1.3-.5-1.8-.6-1z"/><path d="M355.6 247.5c-.6 1.7.9 2.9 2.4 2 1.4-.9 1.2-2.2-.4-2.8-.8-.3-1.7.1-2 .8zM415.8 261.5c-.4 2.7-1 7-1.2 9.5-.5 4-.4 3.8 1-1.5.8-3.3 1.3-7.6 1.2-9.5-.3-3.2-.4-3.1-1 1.5zM311.1 263.6c0 1.1.3 1.4.6.6.3-.7.2-1.6-.1-1.9-.3-.4-.6.2-.5 1.3zM174.2 265c0 .8.4 2.6.8 4 .6 2 .8 2.1.8.5 0-1.1-.3-2.9-.8-4-.5-1.2-.8-1.4-.8-.5zM174.3 277.5c0 3.3.2 4.5.4 2.7.2-1.8.2-4.5 0-6s-.4 0-.4 3.3zM187.9 280.2c0 .2-.2 1.7-.4 3.5-.2 2.2 0 3 .9 2.7.8-.3 1.1-1.7.8-3.4-.4-2.5-.9-3.8-1.3-2.8zM309 280.9c0 .5.7 1.2 1.6 1.5 1.4.5 1.5.4.4-.9-1.4-1.7-2-1.9-2-.6zM414.5 284.2c-.4 1.8-1.6 5-2.6 7-1.1 2.1-1.7 3.8-1.4 3.8.8 0 4.2-7.3 5-10.8.3-1.7.4-3.2.2-3.2-.3 0-.9 1.5-1.2 3.2zM284 284.1c0 .5.5.7 1 .4.6-.3 1-.8 1-1.1 0-.2-.4-.4-1-.4-.5 0-1 .5-1 1.1zM175 286.6c0 1 .5 2.6 1 3.4.8 1.1.9.7.4-1.5-.8-3.7-1.4-4.5-1.4-1.9zM187.6 289.6c-.3.8-1 1.2-1.6.9-1.4-.9-1.3.8.2 2.3.6.6 1.6 3.8 2.2 7.1 1 5.6 1.2 5.8 2.3 3.6.6-1.5.7-2.2.1-1.9-.6.4-.9-1.2-.7-4.4.2-2.7.1-4.8-.3-4.5-1.3.7-.9-2.2.4-3.5.9-.9.8-1.2-.4-1.2-.9 0-1.9.7-2.2 1.6zM270.9 291.5c-.4 4.4-1.9 7.4-3.5 6.8-.9-.3-1.4.2-1.4 1.6 0 1.2-.6 2.1-1.4 2.1-.9 0-1.3.8-1 2.2.2 1.3.2 1.7-.2 1-.3-.6-1-.9-1.5-.6-1.3.8 3.5 4.4 5.9 4.4 1 0 3.1-.9 4.5-2l2.6-2.1 4.7 4.5c2.6 2.5 5 4.3 5.4 4.1.5-.3 1.1-1.9 1.5-3.5.4-1.7 1.1-3 1.6-3 1.8 0 2.4-.2 3.6-1.1 1.5-1.3 6.6 7.1 5.7 9.5-.4 1.1-.1 1.6 1.1 1.6 1.3 0 1.6-.6 1.3-2.4-.4-1.8.1-2.7 1.7-3.4 2.4-1.1 5.6 0 3.6 1.2-.6.4-.8 1.2-.5 1.8.4.6-.1.8-1.5.3-1.2-.4-2.1-.2-2.1.4 0 .6.6 1 1.3.8.7-.1 1.1.7 1 1.8-.1 1.7.2 1.7 2.2-.8 2.9-3.2 3.9-3.5 3.2-.6-.4 1.4.1 2.3 1.6 2.9 1.7.7 1.8.9.5.9-2.2.1-2.4 2.1-.2 2.1.8 0 1.3.4 1 .8-.2.4 1 .8 2.7.8 2.3-.1 3.4-.6 3.8-2.1.7-2.6 0-4.7-1.5-3.8-.6.4-.6.1.2-.9 1-1.3 1-1.7-.3-2.2-2.9-1.1-.7-3.8 2.9-3.5.5 0 1.6-1.1 2.6-2.5.9-1.5 1.9-2.3 2.3-2 .3.3 1.2.2 1.9-.2s2.1-.9 3-.9c1-.1 1.9-.4 2-.6 2.2-3.6 2.4-4.6 1.4-7.5-.7-1.9-1.6-2.9-2.5-2.6-.8.3-1.1 0-.7-.7.4-.7 0-1.1-1.1-1.1s-2.4-.5-3.1-1.2c-1.4-1.4-2.3-.7-2.5 2 0 1.2-.6 1.8-1.4 1.5-1.7-.7-1.6.2.2 2 1.3 1.3 1.3 1.9-.1 4.6-1.5 3-3.4 4.2-3.4 2 0-.5-.4-.8-.9-.5-.5.3-2.6-.1-4.7-1-2.9-1.2-4.3-1.3-6.1-.5-1.5.7-2.2.7-1.8.1.9-1.4-4.8-1.3-6.3.2-.7.7-1.2.8-1.2.4 0-.5-.7-.3-1.5.4-1.3 1-1.9.9-3.5-.5-1.7-1.6-2.5-1.7-5.9-.7-2.1.7-4.4 1.9-5.1 2.7-.7.8-1.8 1.5-2.5 1.5-2.2 0-6.2-7.9-6.1-12.1.1-3.6-1.2-5.7-1.5-2.4zm44.5 24.6c-.3.5-1 .7-1.5.3-.5-.3-.7-1-.3-1.5.3-.5 1-.7 1.5-.3.5.3.7 1 .3 1.5zm-.4 3.9c0 .5-.2 1-.4 1-.3 0-.8-.5-1.1-1-.3-.6-.1-1 .4-1 .6 0 1.1.4 1.1 1zM399.8 296.7c.6.2.9 1 .6 1.5-.4.7-.2.8.4.4 1.8-1.1 1.4-2.6-.5-2.5-1.1 0-1.3.3-.5.6zM181.7 305c.3 3.6.7 6.7.9 6.9.8.9.2-9.5-.6-11.4-.5-1.2-.7.5-.3 4.5z"/><path d="M308.5 300c2.7 1.2 3.5 1.2 3.5 0 0-.6-1.2-1-2.7-.9-2.5 0-2.6.1-.8.9zM399 304.5c-1.7 2.1-.5 5.1 1.4 3.5 1.4-1.1 1.8-5 .5-5-.4 0-1.2.7-1.9 1.5zM406.1 306.6c0 1.1.3 1.4.6.6.3-.7.2-1.6-.1-1.9-.3-.4-.6.2-.5 1.3zM189.2 310.5c-.1 1.9.2 3.5.7 3.5.4 0 .7-1.6.7-3.5-.1-1.9-.4-3.5-.7-3.5-.3 0-.6 1.6-.7 3.5zM289 312.1c0 .5.5.7 1 .4.6-.3 1-.8 1-1.1 0-.2-.4-.4-1-.4-.5 0-1 .5-1 1.1zM183.5 316c.3 2 1.7 4.6 3.2 6l2.7 2.5-2.1-2.5c-1.2-1.4-2.6-4.1-3.2-6l-1.1-3.5.5 3.5zM189.7 317c.3 1.1.7 2 .9 2 .2 0 .4-.9.4-2s-.4-2-.9-2-.7.9-.4 2zM285 315.9c0 .6.4 1.3 1 1.6.6.3.7-.1.4-.9-.7-1.8-1.4-2.1-1.4-.7zM381.1 323.4c-.9 1-.8 1.6.4 2.6 1.3 1.1 1.5.8 1.5-1.4 0-3-.3-3.2-1.9-1.2zM190.8 323.6c-.4.3-.3 1.4.2 2.3.4.9 2 6.3 3.6 12.1 1.5 5.8 4.7 14.3 7.1 19 3.7 7.3 4.3 9.3 4.5 15.5.1 5.5.2 6 .5 2.2.2-2.6.9-4.7 1.4-4.7.6 0 .8 1 .4 2.2-.4 1.5-.3 1.8.2 1 .7-.9 1.7-.3 4 2.3 3.5 3.9 3.9 4.1 4.6 2.1.4-1 .1-1.3-.7-1-1.6.6-9.6-9.1-9.6-11.7 0-1-.5-2.1-1.1-2.5-1.4-.8-7.6-14-8.4-17.9-.8-3.8-1-4.4-2.2-7.5-.6-1.4-1.3-4.3-1.5-6.6-.5-4.4-2-7.8-3-6.8zM393.4 325.6c-.1 1.3.2 2.4.8 2.4.5 0 .6-.5.3-1-.3-.6-.1-1 .4-1 1.5 0 1.4-1.7-.1-2.3-.8-.3-1.4.5-1.4 1.9zM275.4 335.2c-2.8 1.3-5.7 2.8-6.5 3.4-2 1.7-5.9 2.7-5.9 1.6 0-1.2-3.4-2.2-4.8-1.3-.6.3-1.3 1.8-1.7 3.3-.4 1.5-1.3 2.9-2.2 3.2-.8.3-1.1 1-.8 1.6.3.5 0 1-.8 1-.7 0-1.4.7-1.4 1.5 0 1 1 1.5 2.9 1.5 2.1 0 4.1-1.2 6.9-4 4-4 6.4-5 7.1-2.9.3.8.9.7 1.9-.3 2-2 5.6-3.1 6.3-1.9.4.5 5.9.9 12.4.9 6.4.1 14 .4 16.7.7 2.8.4 7.5.7 10.5.8 3 0 4.9.2 4.3.4-.7.3-1.3.9-1.3 1.5 0 1 3.3.7 7.5-.7 1.5-.4 3.2.6 6.9 4 2.7 2.5 5.2 4.3 5.5 3.9.3-.3.6-2.3.6-4.5 0-2.9-.4-3.9-1.6-3.9-.9 0-2.4-.9-3.3-1.9-1-1.1-3-1.9-4.5-1.9-1.4.1-5.6-1.5-9.2-3.5-5.4-3-7.6-3.6-12-3.6-14.1.2-17.8.1-22.9-.5-4.5-.5-6.5-.2-10.6 1.6zm41.5 7.8c-.6.5-1.8.6-2.6.3-1.9-.8-1.6-1.1 1.3-1.1 1.7 0 2.2.3 1.3.8zM389.6 334.9c-.4.7-.5 1.5-.2 1.8.9.9 1.9-.4 1.4-1.8-.4-1.1-.6-1.1-1.2 0zM384.6 337.8c-.2.4-.1 1.4.5 2.2.5.8.9 1 .9.5 0-.6.5-.3 1 .5.7 1 1 1.1 1 .2 0-.7-.7-1.5-1.5-1.8-.8-.4-1.2-1-.9-1.5.3-.5.3-.9 0-.9s-.7.4-1 .8zM387.7 338.1c.7.7 1.5 1 1.8.7.3-.3-.2-.9-1.2-1.2-1.4-.6-1.5-.5-.6.5z"/><path d="M272.9 343.7c-1.3 1.6-1.2 1.7.4.4 1.6-1.3 2.1-2.1 1.3-2.1-.2 0-1 .8-1.7 1.7zM312 349c-1.3.8-1.2 1 .3 1 .9 0 1.7-.5 1.7-1 0-1.2-.1-1.2-2 0zM375.8 352.7c.7.3 1.6.2 1.9-.1.4-.3-.2-.6-1.3-.5-1.1 0-1.4.3-.6.6zM288 354.9c0 .5-1 .8-2.2.6-1.2-.3-2.8 0-3.5.7-1.1.9-.8 1.3 1.3 2.4 1.4.8 3.6 1.4 4.9 1.4 1.2 0 2.8.6 3.4 1.4 1.5 1.8 7.7 1.8 9.4.1.7-.7 3.2-1.6 5.5-2 7.8-1.3 6-4-3-4.7-3.2-.2-5.8-.1-5.8.3 0 1-7 .6-8.7-.4-.7-.5-1.3-.4-1.3.2zM375 354.4c0 .2.7.9 1.5 1.6.9.7 1.5.8 1.5.2 0-.5-.7-1.2-1.5-1.6-.8-.3-1.5-.4-1.5-.2zM379.5 355c.3.5.8 1 1.1 1 .2 0 .4-.5.4-1 0-.6-.5-1-1.1-1-.5 0-.7.4-.4 1zM374 358c0 .5.5 1 1 1 .6 0 1-.5 1-1 0-.6-.4-1-1-1-.5 0-1 .4-1 1zM366 359.4c0 .2.7.9 1.5 1.6.9.7 1.5.8 1.5.2 0-.5-.7-1.2-1.5-1.6-.8-.3-1.5-.4-1.5-.2zM365.6 365.9c-.3.5.1 1.1.9 1.5.8.3 1.5.1 1.5-.4 0-1.3-1.8-2.2-2.4-1.1zM374 366c-.8.5-1 1-.5 1 .6 0 1.7-.5 2.5-1s1.1-1 .5-1c-.5 0-1.7.5-2.5 1zM333 369.4c0 .2.8 1 1.8 1.7 1.5 1.3 1.6 1.2.3-.4s-2.1-2.1-2.1-1.3z"/><path d="M332 372.9c0 .6-.9 1.1-2 1.1s-2 .5-2 1.1c0 .5.5.7 1.2.3.7-.5.9 0 .6 1.4-.5 1.9-.3 2 1.3 1.1 1.5-.7 1.9-.6 1.9.6 0 .8-.6 1.5-1.4 1.5-.7 0-2.1 1-3 2.2-.9 1.3-1.4 1.7-1.1 1 .4-.8-.2-1.2-1.9-1.2-1.6 0-2.6.6-2.6 1.4 0 .8-.7 1.6-1.5 2-.8.3-1.5 1.1-1.4 1.8 0 1 .2 1 .6 0 .2-.6.9-1.2 1.4-1.2.5 0 .4.8-.3 1.9-.8 1.3-2.1 1.8-4.2 1.6-5.8-.6-7.4.8-5.3 4.2.6.9.3 1.1-.7.7-.9-.3-1.6-1.3-1.6-2.1s-.5-1.1-1-.8c-.6.4-.8 1.5-.5 2.6.4 1.1.2 1.9-.5 1.9-.6 0-.9-.4-.6-.9.4-.5 0-1.1-.6-1.4-1-.3-.9-.8.2-2.2 1.4-1.7 1.3-1.8-.2-1.2-.9.3-1.9.1-2.2-.6-.3-.9-.5-.9-.5 0-.1.7-.8 1-1.6.7-.8-.4-1.5-.2-1.5.3s-.8.9-1.7.9c-1 .1-2.7.5-3.7.9-1.2.5-1.7.5-1.3-.1.3-.6.2-1.6-.2-2.3-.6-1-1.2-.9-2.5.4-.9.9-1.3 2.1-1 2.7.3.5-.3 1.8-1.4 2.8-1.1 1.1-2.2 1.5-2.4.9-.2-.5-1-1.1-1.8-1.3-3.3-.6-5.1-1.9-4.6-3.2.5-1.4.2-1.3-5.1 1.4-2.5 1.3-5.6.6-5-1.2.2-.6-.2-1.7-1-2.4-.7-.8-1-1.8-.7-2.4.5-.7 0-.9-1.4-.6-2.1.6-3.2-.8-3.2-4.2 0-1.9-4.6-3.4-5.6-1.8-.3.4-.2.8.3.7 2.2-.4 4.3.2 4.3 1.2 0 .6-.7.8-1.6.5-.9-.3-2.6.4-4.1 1.8l-2.5 2.4 2.6-.5c1.6-.3 2.6-.1 2.6.6s.4 1 .8.7c.4-.2.8.4.8 1.4 0 1.4-.4 1.6-1.7.9-1-.5-1.9-1.4-2.2-2.1-.2-.7-.8-.9-1.3-.5s-.3 1.2.5 1.6c.7.5 1.2 1 1.1 1.2-.4 1.1 1.3 3.8 2.1 3.3.5-.3.9-.1.9.4 0 .6-.7 1.2-1.5 1.6-.9.3-1.5 0-1.5-.9 0-.8-.7-1.5-1.5-1.5s-1.2.6-.9 1.4c.3.8-.3 1.9-1.5 2.5-2.9 1.6-3.9 1.3-1.7-.4 1.9-1.5 1.9-1.5-.1-1.5-1.7 0-3.3 1.7-3.3 3.5 0 1.1 4.2 1 5.9-.2 1.2-.8 2.1-1.3 2.2-1.1 0 .2.1 2 .2 4.1.1 2 .5 3.7 1 3.7h1.3c.4 0 .1-.7-.6-1.5-1.4-1.7-.5-3.6 1.5-2.9 1 .4 1.3 1.4.9 2.8-.3 1.4.1 2.7 1 3.5 1.1.9 1.6 1 1.6.2 0-.6-.6-1.1-1.2-1.1-.7 0-.2-.7 1-1.6 1.6-1.1 2.6-1.2 3.9-.4 1.7 1 1.7 1-.1.8-1-.2-2.1.3-2.4 1.1-.3.9.1 1.1 1.8.6 2-.6 2.1-.5 1 1.5s-1 2.1.9 1.1c2.5-1.4 3.4-1.4 2.6-.1-.3.5-.1 1 .5 1s.9.4.6.9c-.3.4-1.7.6-3.1.3-1.4-.2-2.5 0-2.5.4 0 .5 1.5.9 3.2.9 2.3 0 3.4-.5 3.6-1.7.3-1.6.5-1.6 1.9-.2.9.8 2.2 1.3 2.9 1 .8-.3 1.1 0 .7 1-.3.8-1.4 1.2-2.8 1-3-.6-5.6 1-3.2 2 .9.3 1.4 1 1.1 1.5-.3.5.7.9 2.1.9 3.3 0 6.8 1.8 6 3.1-.4.5.1.9.9.9s1.8-.5 2.1-1c.4-.7 1.3-.7 2.6 0 1.1.6 2.5.8 3.1.4.6-.4.8-.3.5.3-.4.6.1 1.7 1 2.4 1.5 1.2 1.6 1.2 1.1-.7-.5-2-.3-2.1 2.8-1.4 1.8.4 3.6.5 3.9.2.3-.3 1.2.3 2 1.4 1.4 1.8 1.5 1.8.9 0-.6-1.6-.5-1.7 1.5-.6 1.9.9 2.6.9 4-.4 1-.9 2.1-1.3 2.5-.9.4.4.9-.3 1.3-1.5.4-1.7.9-2 2.4-1.2 1 .6 2.9.8 4.2.5 2.9-.8 9-5.9 8.1-6.8-.4-.4-2.1.7-3.7 2.3-3.4 3.3-4.7 3.7-4.7 1.6 0-.7.9-1.6 2-1.9 2.1-.5 2.9-2.9.9-2.5-.6.2-1.4-.3-1.6-1.1-.4-1 0-1.1 1.7-.6 2 .6 2.2.4 1.8-1.7-.3-1.6 0-2.5.9-2.5.8 0 1.1.7.8 1.7-.6 2 2.2 2.3 2.9.3.3-.7 0-1.3-.6-1.3-.7 0-.2-.9 1.1-2.1 1.2-1.2 2.5-1.8 2.8-1.5.3.3 2.2-.1 4.1-1 3.5-1.4 3.5-1.4 1.7.6-2 2.3-1.1 2.8 1.1.6 1.8-1.8 1.8-5.2 0-5.9-1.4-.6-2.9-4.7-1.6-4.7.4 0 1.1 1 1.4 2.2.6 2.2.7 2.1 2.1-1 .8-1.8 1.9-3.1 2.5-2.7.6.4.5 1.2-.5 2.1-2 2-1.9 2.7.1 1.6.9-.5 2.6-.7 3.7-.4 1.7.4 1.9.1 1.5-1.6-.8-2.8.8-3.8 2.1-1.5.5 1 1.2 1.6 1.4 1.3 1.3-1.2-2.1-3.9-4.1-3.3-1.7.4-2 .9-1.2 1.8.7.9.7 1.5.1 1.9-.5.4-1.2-.3-1.6-1.4-.3-1.1-1.1-2-1.6-2s-.4-1 .3-2.3c.7-1.2 1.1-2.6 1-3-.1-.5.2-.6.7-.3.5.3 2-.3 3.2-1.5 1.3-1.1 1.7-1.7.9-1.3-.8.5-2 .9-2.6 1-.6.1-2.1.5-3.3.9-1.4.4-2.1.2-2.1-.7 0-1-.2-1-.9.1-1.3 2.1-3.1.4-3.1-3 0-2.6.3-2.9 2.4-2.5 2.9.5 3.7-1 2.3-4.2-1.3-2.8-4.1-2.5-4.5.6-.4 2.7-3.2 3-3.2.3 0-1.1-.4-2.3-1-2.6-.5-.3-1-.1-1 .4zm4 8.1c0 .5-.2 1-.4 1-.3 0-.8-.5-1.1-1-.3-.6-.1-1 .4-1 .6 0 1.1.4 1.1 1zm-1 2.4c0 .3-.4.8-1 1.1-.5.3-1 .1-1-.4 0-.6.5-1.1 1-1.1.6 0 1 .2 1 .4zm-3.3 3.2c0 1.9-2.1 1.2-2.5-.9-.2-1.1.1-1.5 1.1-1.2.7.3 1.4 1.3 1.4 2.1zm-68.3-.8c.2.4-.4.9-1.5.9-1 .1-1.9-.2-1.9-.8 0-1.1 2.7-1.2 3.4-.1zm74.6.6c0 .8-.4 1.8-1 2.1-.5.3-1-.3-1-1.4 0-1.2.5-2.1 1-2.1.6 0 1 .6 1 1.4zm2.9 1.5c-1.5.5-2.2-.6-1.4-1.9.6-.9 1-.9 1.6.1.5.8.4 1.5-.2 1.8zM327 387c0 .5-.2 1-.4 1-.3 0-.8-.5-1.1-1-.3-.6-.1-1 .4-1 .6 0 1.1.4 1.1 1zm7.5 3.9c.3.6-.3.9-1.4.8-1.1 0-1.7-.5-1.5-.9.7-1.1 2.2-1 2.9.1zm-17 1.1c-.3.5-1.2 1-1.8 1-.7 0-.6-.4.3-1 1.9-1.2 2.3-1.2 1.5 0zm9-.1c.3.5.1 1.2-.5 1.6-.5.3-1-.1-1-.9 0-1.8.6-2.1 1.5-.7zm-57.8 4.5c-.5 1.4-3.7 1.6-3.7.2 0-.6.9-1.2 2-1.2s1.9.5 1.7 1zm13.2 1.5c-.8.2-1.8.9-2.2 1.5-.6.7-.7.4-.3-.7.3-1 .6-2.3.6-2.9 0-.6.7-.5 1.6.3 1.3 1.1 1.3 1.4.3 1.8zm22.8-2.3c-.3.3-1.2.4-1.9.1-.8-.3-.5-.6.6-.6 1.1-.1 1.7.2 1.3.5zm23.8.4c.3.6-.1.7-.9.4-1.8-.7-2.1-1.4-.7-1.4.6 0 1.3.4 1.6 1zm-56.7 2.5c-.3.3-.9-.2-1.2-1.2-.6-1.4-.5-1.5.5-.6.7.7 1 1.5.7 1.8zm61.9 1.7c-.3.8-.6.5-.6-.6-.1-1.1.2-1.7.5-1.3.3.3.4 1.2.1 1.9zm-47.2-.2c-.3.5-1.1 1-1.6 1-.6 0-.7-.5-.4-1 .3-.6 1.1-1 1.6-1 .6 0 .7.4.4 1zm12.5 13.2c-.6.7-1.7 2.2-2.5 3.3-1.3 1.9-1.4 1.9-.8-.5.6-2.4 2-4 3.6-4 .4 0 .3.6-.3 1.2zm-13 2c0 .4-.6.8-1.4.8-.8 0-1.6.5-1.8 1-.2.6-.8.2-1.4-.8-1.1-1.6-.8-1.8 1.7-1.8 1.6 0 2.9.3 2.9.8zm3 1.4c0 .8-.5 1.2-1 .9-.6-.4-.8-1.1-.5-1.6.9-1.4 1.5-1.1 1.5.7zm18.5-.6c.3.6-.1.7-.9.4-1.8-.7-2.1-1.4-.7-1.4.6 0 1.3.4 1.6 1zm-28.5 1c0 .5-.4 1-.9 1-.6 0-1.3-.5-1.6-1-.3-.6.1-1 .9-1 .9 0 1.6.4 1.6 1zM252.1 374.4c-1.5 2.1-2.3 4.2-.8 2.3.8-.9 1.9-1.7 2.5-1.7.6 0 1.3-.4 1.6-.8.8-1.3-2.3-1-3.3.2zM373.9 375.7c-1.3 1.6-1.2 1.7.4.4 1.6-1.3 2.1-2.1 1.3-2.1-.2 0-1 .8-1.7 1.7zM359.1 375.9c-.1.8-.8 1.1-1.8.7-1.5-.5-1.4-.3.2.9 2 1.6 3.1.7 2.2-1.8-.4-.9-.6-.9-.6.2zM259.6 377.3c.3 1 .9 1.5 1.2 1.2.3-.3 0-1.1-.7-1.8-1-.9-1.1-.8-.5.6zM370.4 378c0 1.3.4 1.6 1 1 .7-.7.7-1.3 0-2-.6-.6-1-.3-1 1zM253.5 378c-.3.5-.1 1 .4 1 .6 0 1.1-.5 1.1-1 0-.6-.2-1-.4-1-.3 0-.8.4-1.1 1zM240.8 379.7c.7.3 1.6.2 1.9-.1.4-.3-.2-.6-1.3-.5-1.1 0-1.4.3-.6.6zM352.8 379.7c.7.3 1.6.2 1.9-.1.4-.3-.2-.6-1.3-.5-1.1 0-1.4.3-.6.6zM362.6 380.6c-.9 2.4-.2 2.6 1.2.4.7-1.1.8-2 .3-2s-1.2.7-1.5 1.6zM217.6 381.6c-.3.9-.2 1.2.5.9.5-.4 1.7-.1 2.5.6.8.6 1.6 1 1.8.8.2-.2-.6-1.2-1.9-2.1-2-1.5-2.4-1.6-2.9-.2zM250.6 382.2c.5.7.2.9-.9.5s-1.4-.2-1 .9c.3.9 1.3 1.4 2.4 1.1 1.1-.3 2.2-.1 2.5.4.6 1.1 2.4.2 2.4-1.1 0-.5-.6-.7-1.4-.4-.7.3-1.6-.2-1.9-1-.4-.9-1.1-1.6-1.7-1.6-.6 0-.8.5-.4 1.2zM229 383c0 .5.5 1 1.1 1 .5 0 .7-.5.4-1-.3-.6-.8-1-1.1-1-.2 0-.4.4-.4 1zM224.1 384.3c-.9 1.2-.6 1.8 1.6 3.1l2.8 1.7-2.3-2c-1.5-1.3-1.8-2.1-1-2.4.7-.2 1-.7.7-1.1-.3-.4-1.1 0-1.8.7zM242 383.4c0 .2.7.6 1.5 1 .8.3 1.5.1 1.5-.4 0-.6-.7-1-1.5-1s-1.5.2-1.5.4zM246.1 384.6c0 1.1.3 1.4.6.6.3-.7.2-1.6-.1-1.9-.3-.4-.6.2-.5 1.3zM371 384c-.8.5-1.1 1.2-.7 1.6.4.4 1.5 0 2.4-.9 1.8-1.8.8-2.3-1.7-.7z"/><path d="M269.4 386.5c.1 2.9.3 3 2.1 1.2 1.4-1.4.8-3-1.1-3.4-.7-.1-1.1.9-1 2.2zM355 385.1c0 .5.5.7 1 .4.6-.3 1-.8 1-1.1 0-.2-.4-.4-1-.4-.5 0-1 .5-1 1.1zM233 387.8c0 1.2 1.9 2.6 2.6 1.9.2-.2-.2-1-1.1-1.7-.9-.8-1.5-.8-1.5-.2zM249.3 388.2c.1.6-.9 1.4-2.3 1.8-2.2.6-2.3.8-.7 1.5 1.1.5 2.4.2 3.6-.9 2.2-2 3.8-2.1 2.1-.1-.7.8-.9 1.5-.5 1.5s.3.6-.3 1.3c-.8 1-.6 1.3.9 1.3 1.4 0 1.7-.5 1.3-1.8-.4-1.3-.1-1.6 1-1.2 1.9.7 2-.5.2-2.9-1.5-1.9-5.7-2.4-5.3-.5zM309.5 388c-.3.5.1 1 .9 1 .9 0 1.6-.5 1.6-1 0-.6-.4-1-.9-1-.6 0-1.3.4-1.6 1zM355.5 388.1c-.4.6-1.4.8-2.2.4-1.3-.4-1.3-.3-.4.9.6.7 1 2 .8 2.7-.2.8-.2 1 .1.6.2-.4 1.1-.2 2 .5 1.4 1 1.5 1 .5-.2-1.5-1.7-1.7-4.4-.3-3.5.6.3 1-.1 1-.9 0-1.9-.6-2-1.5-.5zM367.7 387.7c-1 .9-.9 2.3.1 2.3.5 0 .9-.7.9-1.5 0-1.7-.1-1.8-1-.8zM238.8 388.7c.7.3 1.6.2 1.9-.1.4-.3-.2-.6-1.3-.5-1.1 0-1.4.3-.6.6zM279 389c-.8.5-1 1-.5 1 .6 0 1.7-.5 2.5-1s1.1-1 .5-1c-.5 0-1.7.5-2.5 1zM374.2 389.5c-1.6 1.9-.3 1.9 2.2 0 1.4-1.1 1.6-1.5.5-1.5-.8.1-2 .7-2.7 1.5zM272 392c0 1.1.5 2 1 2 .6 0 1-.9 1-2s-.4-2-1-2c-.5 0-1 .9-1 2zM237.5 392c2.8 1.2 3.7 1.2 3 0-.3-.6-1.6-1-2.8-.9-2.1 0-2.1.1-.2.9zM242.3 394.3c0 1.6.5 2.3 1.8 2.3 2.3 0 2.5-1.4.4-2.2-.8-.4-1.2-1-.9-1.5.3-.5.1-.9-.4-.9s-.9 1-.9 2.3zM287 394.1c0 1.8.2 1.9 1.5.9 1.5-1.2 1.2-3-.6-3-.5 0-.9 1-.9 2.1zM235.5 394c-.4.6.1.7 1.1.3 1.3-.5 1.5-.3.9.7-.5.9-.4 1.1.4.6.6-.4.9-1.2.6-1.7-.8-1.2-2.2-1.2-3 .1zM223 394.9c0 .6.5 1.3 1 1.6.6.3 1-.1 1-.9 0-.9-.4-1.6-1-1.6-.5 0-1 .4-1 .9zM379.7 396c-.3 1.1-.1 2 .4 2s.9-.9.9-2-.2-2-.4-2-.6.9-.9 2zM353 397.1c0 .5-.4.8-.9.5-.5-.3-1.1.1-1.5.9-.8 2.1.8 1.9 2.9-.5 1-1.1 1.3-2 .7-2-.7 0-1.2.5-1.2 1.1zM203 398c-.8.5-1.2 1.1-.9 1.4.2.3 1.1.1 1.9-.4.8-.5 1.2-1.1.9-1.4-.2-.3-1.1-.1-1.9.4zM346.8 398.7c.7.3 1.6.2 1.9-.1.4-.3-.2-.6-1.3-.5-1.1 0-1.4.3-.6.6zM351 403.3c-1.2 2.1-1.2 2.1.6.7 1-.8 2-1.5 2.2-1.6.2-.1-.1-.4-.5-.7-.5-.3-1.5.4-2.3 1.6zM380.5 402c.3.5 1.1 1 1.6 1 .6 0 .7-.5.4-1-.3-.6-1.1-1-1.6-1-.6 0-.7.4-.4 1zM388.8 401.7c.7.3 1.6.2 1.9-.1.4-.3-.2-.6-1.3-.5-1.1 0-1.4.3-.6.6zM394.8 402.7c.7.3 1.6.2 1.9-.1.4-.3-.2-.6-1.3-.5-1.1 0-1.4.3-.6.6zM207 406.9c0 7.4 8.1 19.4 22.2 32.6 9.6 9.1 32.4 28.2 38.4 32.2 2.3 1.6 6.8 4.6 10 6.7 3.3 2.2 6.1 4.3 6.4 4.7.3.4 2.6.3 5-.2 2.5-.6 6-.9 7.9-.7 3.7.5 6.7-1.3 27.3-16.2 15.7-11.3 25.2-19.4 33.6-28.9 8.7-9.7 17.2-21.2 17.2-23.2 0-.8-.8-.2-1.8 1.4-1 1.5-2.2 2.4-2.7 2-.4-.5-.5-.3-.2.3 1.8 3.1-21.4 27.4-38.8 40.6-.5.4-2.3 1.9-3.9 3.3s-3.5 2.5-4.2 2.5c-.8 0-1.4.4-1.4 1 0 1-13.2 11.1-18.4 14-1.8 1-6.4 2.1-10.7 2.4-7.2.6-8 .5-12.2-2.1-8.5-5.2-16.1-10.8-26.2-19.2-8.9-7.5-14.8-12.9-30.2-28-6-5.8-14-18.2-14.8-22.9-1-6.1-2.5-7.4-2.5-2.3zM390 405c0 .5.5 1 1.1 1 .5 0 .7-.5.4-1-.3-.6-.8-1-1.1-1-.2 0-.4.4-.4 1zM407.8 406.7c.7.3 1.6.2 1.9-.1.4-.3-.2-.6-1.3-.5-1.1 0-1.4.3-.6.6z"/><path d="M333.9 407.7c-2.1.5-2.4 6.2-.3 5.9.8-.1 2-.8 2.7-1.6 1-1.2.9-1.2-.5-.2-1 .8-1.8.9-2.2.3-.4-.5.3-1.6 1.5-2.4 2.1-1.6 1.5-2.6-1.2-2zM398.8 414.7c.7.3 1.6.2 1.9-.1.4-.3-.2-.6-1.3-.5-1.1 0-1.4.3-.6.6zM415.8 415.7c.7.3 1.6.2 1.9-.1.4-.3-.2-.6-1.3-.5-1.1 0-1.4.3-.6.6zM193.5 418c-.3.5-.1 1 .4 1 .6 0 1.1-.5 1.1-1 0-.6-.2-1-.4-1-.3 0-.8.4-1.1 1zM204.6 417.9c-.4.7-.5 1.5-.2 1.8.9.9 1.9-.4 1.4-1.8-.4-1.1-.6-1.1-1.2 0zM183.5 420c-.3.5.1 1 .9 1 .9 0 1.6-.5 1.6-1 0-.6-.4-1-.9-1-.6 0-1.3.4-1.6 1zM366.6 420.2c.3.5 1 .6 1.5.3 1.3-.9 1.1-1.2-.6-1.2-.8 0-1.2.4-.9.9zM384.5 422c.3.5.8 1 1.1 1 .2 0 .4-.5.4-1 0-.6-.5-1-1.1-1-.5 0-.7.4-.4 1zM452.8 421.7c.7.3 1.6.2 1.9-.1.4-.3-.2-.6-1.3-.5-1.1 0-1.4.3-.6.6zM375.1 423.6c0 1.1.3 1.4.6.6.3-.7.2-1.6-.1-1.9-.3-.4-.6.2-.5 1.3zM335 425.1c0 .5.5.7 1 .4.6-.3 1-.8 1-1.1 0-.2-.4-.4-1-.4-.5 0-1 .5-1 1.1zM442 425c0 .5.5 1 1.1 1 .5 0 .7-.5.4-1-.3-.6-.8-1-1.1-1-.2 0-.4.4-.4 1zM408.5 426c.3.5.8 1 1.1 1 .2 0 .4-.5.4-1 0-.6-.5-1-1.1-1-.5 0-.7.4-.4 1zM424.5 426c.3.5 1 1 1.6 1 .5 0 .9-.5.9-1 0-.6-.7-1-1.6-1-.8 0-1.2.4-.9 1zM459 426.9c0 .5.5 1.3 1 1.6.6.3 1 .2 1-.4 0-.5-.4-1.3-1-1.6-.5-.3-1-.2-1 .4zM153 428.1c0 .5.5.7 1 .4.6-.3 1-.8 1-1.1 0-.2-.4-.4-1-.4-.5 0-1 .5-1 1.1zM126.8 431.7c.7.3 1.6.2 1.9-.1.4-.3-.2-.6-1.3-.5-1.1 0-1.4.3-.6.6zM175.8 432.7c.7.3 1.6.2 1.9-.1.4-.3-.2-.6-1.3-.5-1.1 0-1.4.3-.6.6zM473.5 434c.3.5.8 1 1.1 1 .2 0 .4-.5.4-1 0-.6-.5-1-1.1-1-.5 0-.7.4-.4 1zM159.5 435c-.3.5-.2 1 .4 1 .5 0 1.3-.5 1.6-1 .3-.6.2-1-.4-1-.5 0-1.3.4-1.6 1zM125 436c0 .5.4 1 .9 1 .6 0 1.3-.5 1.6-1 .3-.6-.1-1-.9-1-.9 0-1.6.4-1.6 1zM142.8 435.7c.7.3 1.6.2 1.9-.1.4-.3-.2-.6-1.3-.5-1.1 0-1.4.3-.6.6zM109 438c0 .5.5 1 1 1 .6 0 1-.5 1-1 0-.6-.4-1-1-1-.5 0-1 .4-1 1zM186.5 438c-.3.5-.1 1 .4 1 .6 0 1.1-.5 1.1-1 0-.6-.2-1-.4-1-.3 0-.8.4-1.1 1zM204.1 440.6c0 1.1.3 1.4.6.6.3-.7.2-1.6-.1-1.9-.3-.4-.6.2-.5 1.3zM432 440c0 .5.5 1 1 1 .6 0 1-.5 1-1 0-.6-.4-1-1-1-.5 0-1 .4-1 1zM217 441.6c0 .8.5 1.2 1 .9.6-.3 1-1 1-1.6 0-.5-.4-.9-1-.9-.5 0-1 .7-1 1.6zM415.2 440.9c.2.7.7 1.2 1.1 1.2 1.2-.1.9-1.5-.3-2-.7-.2-1.1.2-.8.8zM481 441c0 .5.7 1 1.5 1s1.5-.5 1.5-1c0-.6-.7-1-1.5-1s-1.5.4-1.5 1zM306.3 443.1c-.5 1.6-1.1 1.9-3 1.4-1.8-.4-2.4-.2-2 .7.5 1.5 7.7 1.2 9.2-.4.7-.7.3-.8-1.2-.3-2.5.7-3-.4-1.1-2.3.9-.9.9-1.2-.1-1.2-.7 0-1.5.9-1.8 2.1zM387 442.4c0 .9.5 1.6 1 1.6.6 0 1-.4 1-.9 0-.6-.4-1.3-1-1.6-.5-.3-1 .1-1 .9zM447 442.4c0 .9.5 1.6 1 1.6.6 0 1-.4 1-.9 0-.6-.4-1.3-1-1.6-.5-.3-1 .1-1 .9zM180.5 443c-.3.5-.2 1 .4 1 .5 0 1.3-.5 1.6-1 .3-.6.2-1-.4-1-.5 0-1.3.4-1.6 1zM499 443c0 .5.5 1 1.1 1 .5 0 .7-.5.4-1-.3-.6-.8-1-1.1-1-.2 0-.4.4-.4 1zM375.1 444.6c0 1.1.3 1.4.6.6.3-.7.2-1.6-.1-1.9-.3-.4-.6.2-.5 1.3zM463.8 443.7c.7.3 1.6.2 1.9-.1.4-.3-.2-.6-1.3-.5-1.1 0-1.4.3-.6.6zM296.6 444.8c-.3.5.1.9.9.9s1.5-.4 1.5-.9c0-.4-.4-.8-.9-.8-.6 0-1.2.4-1.5.8zM407 445c0 .5.7 1 1.5 1s1.5-.5 1.5-1c0-.6-.7-1-1.5-1s-1.5.4-1.5 1zM361 446.6c0 .8.5 1.2 1 .9.6-.4.8-1.1.5-1.6-.9-1.4-1.5-1.1-1.5.7zM100.5 447c.4.6 1.1.8 1.6.5 1.4-.9 1.1-1.5-.7-1.5-.8 0-1.2.5-.9 1zM151 447c0 .5.5 1 1 1 .6 0 1-.5 1-1 0-.6-.4-1-1-1-.5 0-1 .4-1 1zM78.8 448.7c.7.3 1.6.2 1.9-.1.4-.3-.2-.6-1.3-.5-1.1 0-1.4.3-.6.6zM136 450.1c0 .5.5.7 1 .4.6-.3 1-.8 1-1.1 0-.2-.4-.4-1-.4-.5 0-1 .5-1 1.1zM119.5 451c-.3.5-.2 1 .4 1 .5 0 1.3-.5 1.6-1 .3-.6.2-1-.4-1-.5 0-1.3.4-1.6 1zM73 455c0 .5.5 1 1 1 .6 0 1-.5 1-1 0-.6-.4-1-1-1-.5 0-1 .4-1 1zM489.8 454.7c.7.3 1.6.2 1.9-.1.4-.3-.2-.6-1.3-.5-1.1 0-1.4.3-.6.6zM422.2 455.9c.2.7.7 1.2 1.1 1.2 1.2-.1.9-1.5-.3-2-.7-.2-1.1.2-.8.8zM91.8 456.7c.7.3 1.6.2 1.9-.1.4-.3-.2-.6-1.3-.5-1.1 0-1.4.3-.6.6zM166.5 457c-.3.5.1 1 .9 1 .9 0 1.6-.5 1.6-1 0-.6-.4-1-.9-1-.6 0-1.3.4-1.6 1zM470.6 456.9c-.3.5.1 1.1.9 1.5.8.3 1.5.1 1.5-.4 0-1.3-1.8-2.2-2.4-1.1zM453.5 459c.3.5.8 1 1.1 1 .2 0 .4-.5.4-1 0-.6-.5-1-1.1-1-.5 0-.7.4-.4 1zM192 460.6c0 .8.5 1.2 1 .9.6-.3 1-1 1-1.6 0-.5-.4-.9-1-.9-.5 0-1 .7-1 1.6zM110.5 461c-.3.5.1 1 .9 1 .9 0 1.6-.5 1.6-1 0-.6-.4-1-.9-1-.6 0-1.3.4-1.6 1zM203.5 460.9c-.3.5-.1 1.2.5 1.6.5.3 1-.1 1-.9 0-1.8-.6-2.1-1.5-.7zM216 463.6c0 .8.5 1.2 1 .9.6-.3 1-1 1-1.6 0-.5-.4-.9-1-.9-.5 0-1 .7-1 1.6zM232.6 462.8c-.3.6-.1 1.4.5 1.7 1.5 1 2.5-.3 1.2-1.6-.7-.7-1.3-.7-1.7-.1zM388 463c0 .5.5 1 1 1 .6 0 1-.5 1-1 0-.6-.4-1-1-1-.5 0-1 .4-1 1zM129 464c-1.3.8-1.2 1 .3 1 .9 0 1.7-.5 1.7-1 0-1.2-.1-1.2-2 0zM516 464c0 .5.5 1 1.1 1 .5 0 .7-.5.4-1-.3-.6-.8-1-1.1-1-.2 0-.4.4-.4 1zM140 465c0 .5.7.7 1.5.4.8-.4 1.5-.8 1.5-1 0-.2-.7-.4-1.5-.4s-1.5.4-1.5 1zM253 465c0 .5.7 1 1.6 1 .8 0 1.2-.5.9-1-.3-.6-1-1-1.6-1-.5 0-.9.4-.9 1zM374 465c0 .5.5 1 1 1 .6 0 1-.5 1-1 0-.6-.4-1-1-1-.5 0-1 .4-1 1zM533.7 465.1c.7.7 1.5 1 1.8.7.3-.3-.2-.9-1.2-1.2-1.4-.6-1.5-.5-.6.5zM64 466c0 .5.4 1 .9 1 .6 0 1.3-.5 1.6-1 .3-.6-.1-1-.9-1-.9 0-1.6.4-1.6 1zM497.8 465.7c.7.3 1.6.2 1.9-.1.4-.3-.2-.6-1.3-.5-1.1 0-1.4.3-.6.6zM179.5 467.1c-1 1.5.3 2.5 1.6 1.2.7-.7.7-1.3.1-1.7-.6-.3-1.4-.1-1.7.5zM359 467.1c0 .5.5.7 1 .4.6-.3 1-.8 1-1.1 0-.2-.4-.4-1-.4-.5 0-1 .5-1 1.1zM82 468c0 .5.4 1 .9 1 .6 0 1.3-.5 1.6-1 .3-.6-.1-1-.9-1-.9 0-1.6.4-1.6 1zM342.7 467.7c-1 .9-.9 2.3.2 2.3.5 0 1.1-.7 1.5-1.5.5-1.5-.5-2-1.7-.8zM407.5 467.9c-.6 1.1.9 2.3 1.9 1.4.9-.9.7-2.3-.3-2.3-.6 0-1.2.4-1.6.9zM47 469.1c0 .5.5.7 1 .4.6-.3 1-.8 1-1.1 0-.2-.4-.4-1-.4-.5 0-1 .5-1 1.1zM322.5 469c-.3.5-.1 1 .4 1 .6 0 1.1-.5 1.1-1 0-.6-.2-1-.4-1-.3 0-.8.4-1.1 1zM478.5 470c-.3.5.1 1 1 1s1.3-.5 1-1c-.3-.6-.8-1-1-1-.2 0-.7.4-1 1zM151.5 472c-.3.5-.2 1 .4 1 .5 0 1.3-.5 1.6-1 .3-.6.2-1-.4-1-.5 0-1.3.4-1.6 1zM435 472c0 .5.5 1 1 1 .6 0 1-.5 1-1 0-.6-.4-1-1-1-.5 0-1 .4-1 1zM463.5 472c.4.6 1.1.8 1.6.5 1.4-.9 1.1-1.5-.7-1.5-.8 0-1.2.5-.9 1zM123.5 475c-.3.5.1 1 .9 1 .9 0 1.6-.5 1.6-1 0-.6-.4-1-.9-1-.6 0-1.3.4-1.6 1zM94 476c0 .5.7 1 1.5 1s1.5-.5 1.5-1c0-.6-.7-1-1.5-1s-1.5.4-1.5 1zM542 477c0 .5.5 1 1 1 .6 0 1-.5 1-1 0-.6-.4-1-1-1-.5 0-1 .4-1 1zM38 478.1c0 .5.5.7 1 .4.6-.3 1-.8 1-1.1 0-.2-.4-.4-1-.4-.5 0-1 .5-1 1.1zM55.5 478c-.3.5.1 1 .9 1 .9 0 1.6-.5 1.6-1 0-.6-.4-1-.9-1-.6 0-1.3.4-1.6 1zM192.6 477.9c-.4.7-.5 1.5-.2 1.8.9.9 1.9-.4 1.4-1.8-.4-1.1-.6-1.1-1.2 0zM522.6 477.8c-.3.6-.1 1.4.5 1.7 1.5 1 2.5-.3 1.2-1.6-.7-.7-1.3-.7-1.7-.1zM21 480c-1.3.8-1.2 1 .3 1 .9 0 1.7-.5 1.7-1 0-1.2-.1-1.2-2 0zM392.6 480.9c-.4.5-.2 1.2.3 1.5.5.4 1.2.2 1.5-.3.4-.5.2-1.2-.3-1.5-.5-.4-1.2-.2-1.5.3zM508.5 481c.3.5.8 1 1.1 1 .2 0 .4-.5.4-1 0-.6-.5-1-1.1-1-.5 0-.7.4-.4 1zM164 482c0 .5.7 1 1.5 1s1.5-.5 1.5-1c0-.6-.7-1-1.5-1s-1.5.4-1.5 1zM421.5 482.1c-1 1.5.3 2.5 1.6 1.2.7-.7.7-1.3.1-1.7-.6-.3-1.4-.1-1.7.5zM135.5 484c-.3.5-.2 1 .4 1 .5 0 1.3-.5 1.6-1 .3-.6.2-1-.4-1-.5 0-1.3.4-1.6 1zM217 484.6c0 .8.5 1.2 1 .9.6-.4.8-1.1.5-1.6-.9-1.4-1.5-1.1-1.5.7zM234.6 483.9c-.4.5-.2 1.2.3 1.5.5.4 1.2.2 1.5-.3.4-.5.2-1.2-.3-1.5-.5-.4-1.2-.2-1.5.3zM449.5 484c.3.5 1 1 1.6 1 .5 0 .9-.5.9-1 0-.6-.7-1-1.6-1-.8 0-1.2.4-.9 1zM478 484c0 .5.7 1 1.5 1s1.5-.5 1.5-1c0-.6-.7-1-1.5-1s-1.5.4-1.5 1zM6.5 485c-.3.5-.1 1 .4 1 .6 0 1.1-.5 1.1-1 0-.6-.2-1-.4-1-.3 0-.8.4-1.1 1zM251.6 484.8c-.3.6-.1 1.4.5 1.7 1.5 1 2.5-.3 1.2-1.6-.7-.7-1.3-.7-1.7-.1zM272.5 485.1c-1 1.5.3 2.5 1.6 1.2.7-.7.7-1.3.1-1.7-.6-.3-1.4-.1-1.7.5zM374.5 485c.3.5 1 1 1.6 1 .5 0 .9-.5.9-1 0-.6-.7-1-1.6-1-.8 0-1.2.4-.9 1zM356.5 486.1c-1 1.5.3 2.5 1.6 1.2.7-.7.7-1.3.1-1.7-.6-.3-1.4-.1-1.7.5zM106.5 487c-.3.5-.2 1 .4 1 .5 0 1.3-.5 1.6-1 .3-.6.2-1-.4-1-.5 0-1.3.4-1.6 1zM276.4 489.2c-6 6.6-7.7 9.2-2.9 4.4 5.4-5.4 7-4.9 3 .9-1.4 2.1-2.5 4.3-2.5 4.9 0 .6.9-.5 2.1-2.4 1.1-1.9 3.2-4.5 4.7-5.7l2.7-2.3h-2.4c-1.6 0-2.1-.4-1.7-1.5.8-2.2.4-1.9-3 1.7zM340 488.1c0 .5.5.7 1 .4.6-.3 1-.8 1-1.1 0-.2-.4-.4-1-.4-.5 0-1 .5-1 1.1zM47.5 489c-.3.5.1 1 .9 1 .9 0 1.6-.5 1.6-1 0-.6-.4-1-.9-1-.6 0-1.3.4-1.6 1zM77 489c0 .5.7 1 1.5 1s1.5-.5 1.5-1c0-.6-.7-1-1.5-1s-1.5.4-1.5 1zM322 489c0 .5.4 1 .9 1 .6 0 1.3-.5 1.6-1 .3-.6-.1-1-.9-1-.9 0-1.6.4-1.6 1zM301.3 490.1c-2.9.8-3 1.1-2 3.3.7 1.4 1.6 2.1 2.2 1.7.5-.5 2.3-1.2 3.8-1.7 2.7-.9 2.8-1 1-2.5-1.3-1.2-2.6-1.4-5-.8zM547.5 492c.3.5 1.1 1 1.6 1 .6 0 .7-.5.4-1-.3-.6-1.1-1-1.6-1-.6 0-.7.4-.4 1zM204 493c0 .5.5 1 1.1 1 .5 0 .7-.5.4-1-.3-.6-.8-1-1.1-1-.2 0-.4.4-.4 1zM378 493c0 .5.5 1 1 1 .6 0 1-.5 1-1 0-.6-.4-1-1-1-.5 0-1 .4-1 1zM493.5 493c-.3.5.1 1 .9 1 .9 0 1.6-.5 1.6-1 0-.6-.4-1-.9-1-.6 0-1.3.4-1.6 1zM523 493c0 .5.5 1 1 1 .6 0 1-.5 1-1 0-.6-.4-1-1-1-.5 0-1 .4-1 1zM13.5 494c-.3.5-.1 1 .4 1 .6 0 1.1-.5 1.1-1 0-.6-.2-1-.4-1-.3 0-.8.4-1.1 1zM177.6 493.7c-1.1 1.1-.6 2.3.9 2.3.8 0 1.5-.4 1.5-.9 0-1.3-1.6-2.2-2.4-1.4zM407.6 493.9c-.4.5-.2 1.2.3 1.5.5.4 1.2.2 1.5-.3.4-.5.2-1.2-.3-1.5-.5-.4-1.2-.2-1.5.3zM586.5 495c.3.5.8 1 1.1 1 .2 0 .4-.5.4-1 0-.6-.5-1-1.1-1-.5 0-.7.4-.4 1zM148 496c0 .5.5 1 1 1 .6 0 1-.5 1-1 0-.6-.4-1-1-1-.5 0-1 .4-1 1zM436 496c0 .5.7 1 1.6 1 .8 0 1.2-.5.9-1-.3-.6-1-1-1.6-1-.5 0-.9.4-.9 1zM464.6 496.7c-1.1 1.1-.6 2.3.9 2.3.8 0 1.5-.4 1.5-.9 0-1.3-1.6-2.2-2.4-1.4zM119.6 497.9c-.4.7-.5 1.5-.2 1.8.9.9 1.9-.4 1.4-1.8-.4-1.1-.6-1.1-1.2 0zM60 500c0 .5.5 1 1 1 .6 0 1-.5 1-1 0-.6-.4-1-1-1-.5 0-1 .4-1 1zM269.5 500c.3.5 1.3 1 2.1 1s1.4-.5 1.4-1c0-.6-.9-1-2.1-1-1.1 0-1.7.4-1.4 1zM90.6 500.9c-.4.5-.2 1.2.3 1.5.5.4 1.2.2 1.5-.3.4-.5.2-1.2-.3-1.5-.5-.4-1.2-.2-1.5.3zM30 503c0 .5.7 1 1.5 1s1.5-.5 1.5-1c0-.6-.7-1-1.5-1s-1.5.4-1.5 1zM261.7 506.2l-3.4 4.1 2.7 2.7c1.6 1.6 3 3.4 3.2 4.1.3.8 1.5.3 3.6-1.6 2.3-2 3.2-3.7 3.2-5.9 0-2.4.3-2.7 1-1.6.8 1.3 1 1.3 1-.2 0-.9.3-2.4.7-3.4.4-1 .2-1.5-.3-1.1-.6.3-2.7.2-4.7-.3-3.5-.7-3.9-.6-7 3.2zM538 504c0 .5.5 1 1 1 .6 0 1-.5 1-1 0-.6-.4-1-1-1-.5 0-1 .4-1 1zM215.5 504.9c-.6 1.1.9 2.3 1.9 1.4.9-.9.7-2.3-.3-2.3-.6 0-1.2.4-1.6.9zM189.5 506.1c-1 1.5.3 2.5 1.6 1.2.7-.7.7-1.3.1-1.7-.6-.3-1.4-.1-1.7.5zM233.6 505.8c-.3.6-.1 1.4.5 1.7 1.5 1 2.5-.3 1.2-1.6-.7-.7-1.3-.7-1.7-.1zM361 506c0 .5.7 1 1.6 1 .8 0 1.2-.5.9-1-.3-.6-1-1-1.6-1-.5 0-.9.4-.9 1zM508.6 505.8c-.3.6-.1 1.4.5 1.7 1.5 1 2.5-.3 1.2-1.6-.7-.7-1.3-.7-1.7-.1zM566.5 505.9c-.3.5-.1 1.2.5 1.6.5.3 1-.1 1-.9 0-1.8-.6-2.1-1.5-.7zM595.5 506c.3.5 1.1 1 1.6 1 .6 0 .7-.5.4-1-.3-.6-1.1-1-1.6-1-.6 0-.7.4-.4 1zM251 507.6c0 .8.5 1.2 1 .9.6-.3 1-1 1-1.6 0-.5-.4-.9-1-.9-.5 0-1 .7-1 1.6zM394 507c0 .5.5 1 1 1 .6 0 1-.5 1-1 0-.6-.4-1-1-1-.5 0-1 .4-1 1zM324.6 507.8c-.3.6-.1 1.4.5 1.7 1.5 1 2.5-.3 1.2-1.6-.7-.7-1.3-.7-1.7-.1zM342.2 507.9c.4 1.3 1.8 1.6 1.9.4 0-.4-.5-.9-1.1-1.2-.7-.2-1.1.2-.8.8zM422.5 507.9c-.6 1.1.9 2.3 1.9 1.4.9-.9.7-2.3-.3-2.3-.6 0-1.2.4-1.6.9zM479.5 508c-.3.5.1 1 .9 1 .9 0 1.6-.5 1.6-1 0-.6-.4-1-.9-1-.6 0-1.3.4-1.6 1zM161.5 509c-.3.5.1 1 .9 1 .9 0 1.6-.5 1.6-1 0-.6-.4-1-.9-1-.6 0-1.3.4-1.6 1zM132 511c0 .5.4 1 .9 1 .6 0 1.3-.5 1.6-1 .3-.6-.1-1-.9-1-.9 0-1.6.4-1.6 1zM307.6 510.9c-.4.5-.2 1.2.3 1.5.5.4 1.2.2 1.5-.3.4-.5.2-1.2-.3-1.5-.5-.4-1.2-.2-1.5.3zM450.2 510.9c.2.7.7 1.2 1.1 1.2 1.2-.1.9-1.5-.3-2-.7-.2-1.1.2-.8.8zM73 514c0 .5.4 1 .9 1 .6 0 1.3-.5 1.6-1 .3-.6-.1-1-.9-1-.9 0-1.6.4-1.6 1zM103.5 514c-.3.5.1 1 .9 1 .9 0 1.6-.5 1.6-1 0-.6-.4-1-.9-1-.6 0-1.3.4-1.6 1zM277.5 514c-.3.5-.1 1 .4 1 .6 0 1.1-.5 1.1-1 0-.6-.2-1-.4-1-.3 0-.8.4-1.1 1zM44 515.1c0 .5.5.7 1 .4.6-.3 1-.8 1-1.1 0-.2-.4-.4-1-.4-.5 0-1 .5-1 1.1zM524 516c0 .5.4 1 .9 1 .6 0 1.3-.5 1.6-1 .3-.6-.1-1-.9-1-.9 0-1.6.4-1.6 1zM553 516c0 .5.7 1 1.6 1 .8 0 1.2-.5.9-1-.3-.6-1-1-1.6-1-.5 0-.9.4-.9 1zM15 518.6c0 .8.5 1.2 1 .9.6-.3 1-1 1-1.6 0-.5-.4-.9-1-.9-.5 0-1 .7-1 1.6zM255 519.9c0 .6.4 1.3 1 1.6.6.3.7-.1.4-.9-.7-1.8-1.4-2.1-1.4-.7zM379 520c0 .5.7 1 1.5 1s1.5-.5 1.5-1c0-.6-.7-1-1.5-1s-1.5.4-1.5 1zM495 520c0 .5.5 1 1 1 .6 0 1-.5 1-1 0-.6-.4-1-1-1-.5 0-1 .4-1 1zM203.5 521.1c-1 1.5.3 2.5 1.6 1.2.7-.7.7-1.3.1-1.7-.6-.3-1.4-.1-1.7.5zM408.2 521.9c.4 1.3 1.8 1.6 1.9.4 0-.4-.5-.9-1.1-1.2-.7-.2-1.1.2-.8.8zM175 523c0 .5.7 1 1.5 1s1.5-.5 1.5-1c0-.6-.7-1-1.5-1s-1.5.4-1.5 1zM437 523c0 .5.7 1 1.6 1 .8 0 1.2-.5.9-1-.3-.6-1-1-1.6-1-.5 0-.9.4-.9 1zM465.5 523c-.3.5.1 1 .9 1 .9 0 1.6-.5 1.6-1 0-.6-.4-1-.9-1-.6 0-1.3.4-1.6 1zM580 523c0 .5.5 1 1 1 .6 0 1-.5 1-1 0-.6-.4-1-1-1-.5 0-1 .4-1 1zM146 524c0 .5.5 1 1 1 .6 0 1-.5 1-1 0-.6-.4-1-1-1-.5 0-1 .4-1 1zM322 524.6c0 .8.5 1.2 1 .9.6-.3 1-1 1-1.6 0-.5-.4-.9-1-.9-.5 0-1 .7-1 1.6zM260.2 525.1c.2.6.8 1 1.3 1s1.1-.4 1.3-1c.2-.6-.4-1.1-1.3-1.1s-1.5.5-1.3 1.1zM56 526c0 .5.7 1 1.5 1s1.5-.5 1.5-1c0-.6-.7-1-1.5-1s-1.5.4-1.5 1zM87 526c0 .5.5 1 1 1 .6 0 1-.5 1-1 0-.6-.4-1-1-1-.5 0-1 .4-1 1zM117.5 526.1c-1 1.5.3 2.5 1.6 1.2.7-.7.7-1.3.1-1.7-.6-.3-1.4-.1-1.7.5zM293.2 525.9c.2.7.7 1.2 1.1 1.2 1.2-.1.9-1.5-.3-2-.7-.2-1.1.2-.8.8zM229 527c0 .5.5 1 1 1 .6 0 1-.5 1-1 0-.6-.4-1-1-1-.5 0-1 .4-1 1zM348 526.9c0 .6.5 1.3 1 1.6.6.3 1-.1 1-.9 0-.9-.4-1.6-1-1.6-.5 0-1 .4-1 .9zM597.5 528c.4.6 1.1.8 1.6.5 1.4-.9 1.1-1.5-.7-1.5-.8 0-1.2.5-.9 1zM29.2 529.9c.4 1.3 1.8 1.6 1.9.4 0-.4-.5-.9-1.1-1.2-.7-.2-1.1.2-.8.8zM538.5 530c-.3.5.1 1 .9 1 .9 0 1.6-.5 1.6-1 0-.6-.4-1-.9-1-.6 0-1.3.4-1.6 1zM510.5 531c-.3.5.1 1 .9 1 .9 0 1.6-.5 1.6-1 0-.6-.4-1-.9-1-.6 0-1.3.4-1.6 1zM482 532.9c0 .6.5 1.3 1 1.6.6.3 1-.1 1-.9 0-.9-.4-1.6-1-1.6-.5 0-1 .4-1 .9zM564.5 533c-.3.5.1 1 1 1s1.3-.5 1-1c-.3-.6-.8-1-1-1-.2 0-.7.4-1 1zM365.6 533.7c-1.1 1.1-.6 2.3.9 2.3.8 0 1.5-.4 1.5-.9 0-1.3-1.6-2.2-2.4-1.4zM187.5 534.9c-.6 1.1.9 2.3 1.9 1.4.9-.9.7-2.3-.3-2.3-.6 0-1.2.4-1.6.9zM394.6 534.8c-.3.6-.1 1.4.5 1.7 1.5 1 2.5-.3 1.2-1.6-.7-.7-1.3-.7-1.7-.1zM216.5 535.9c-.6 1.1.9 2.3 1.9 1.4.9-.9.7-2.3-.3-2.3-.6 0-1.2.4-1.6.9zM423.6 535.8c-.3.6-.1 1.4.5 1.7 1.5 1 2.5-.3 1.2-1.6-.7-.7-1.3-.7-1.7-.1zM2 537c0 .5.5 1 1 1 .6 0 1-.5 1-1 0-.6-.4-1-1-1-.5 0-1 .4-1 1zM69.5 537.9c-.6 1.1.9 2.3 1.9 1.4.9-.9.7-2.3-.3-2.3-.6 0-1.2.4-1.6.9zM130 538.6c0 .8.5 1.2 1 .9.6-.3 1-1 1-1.6 0-.5-.4-.9-1-.9-.5 0-1 .7-1 1.6zM159.5 538c-.3.5.1 1 .9 1 .9 0 1.6-.5 1.6-1 0-.6-.4-1-.9-1-.6 0-1.3.4-1.6 1zM335 538c0 .5.5 1 1 1 .6 0 1-.5 1-1 0-.6-.4-1-1-1-.5 0-1 .4-1 1zM452 538c0 .5.7 1 1.5 1s1.5-.5 1.5-1c0-.6-.7-1-1.5-1s-1.5.4-1.5 1zM246.2 538.9c.4 1.3 1.8 1.6 1.9.4 0-.4-.5-.9-1.1-1.2-.7-.2-1.1.2-.8.8zM100 540c0 .5.7 1 1.5 1s1.5-.5 1.5-1c0-.6-.7-1-1.5-1s-1.5.4-1.5 1zM307.6 539.9c-.4.7-.5 1.5-.2 1.8.9.9 1.9-.4 1.4-1.8-.4-1.1-.6-1.1-1.2 0zM42 542.1c0 .5.5.7 1 .4.6-.3 1-.8 1-1.1 0-.2-.4-.4-1-.4-.5 0-1 .5-1 1.1zM278 542.5c0 .9.5 1.5 1.1 1.3.6-.2 1.1-.8 1.1-1.3s-.5-1.1-1.1-1.3c-.6-.2-1.1.4-1.1 1.3zM586 542.5c0 .8.5 1.5 1 1.5.6 0 1-.7 1-1.5s-.4-1.5-1-1.5c-.5 0-1 .7-1 1.5zM526 543c0 .5.5 1 1 1 .6 0 1-.5 1-1 0-.6-.4-1-1-1-.5 0-1 .4-1 1zM553 542.9c0 .5.5 1.3 1 1.6.6.3 1 .2 1-.4 0-.5-.4-1.3-1-1.6-.5-.3-1-.2-1 .4zM16 547.6c0 .8.5 1.2 1 .9.6-.3 1-1 1-1.6 0-.5-.4-.9-1-.9-.5 0-1 .7-1 1.6zM468 547.5c0 .9.5 1.5 1.1 1.3.6-.2 1.1-.8 1.1-1.3s-.5-1.1-1.1-1.3c-.6-.2-1.1.4-1.1 1.3zM497 547.5c0 .8.5 1.5 1 1.5.6 0 1-.7 1-1.5s-.4-1.5-1-1.5c-.5 0-1 .7-1 1.5zM579 548c0 .5.7 1 1.6 1 .8 0 1.2-.5.9-1-.3-.6-1-1-1.6-1-.5 0-.9.4-.9 1zM380.2 548.9c.4 1.3 1.8 1.6 1.9.4 0-.4-.5-.9-1.1-1.2-.7-.2-1.1.2-.8.8zM350.5 550.1c-1 1.5.3 2.5 1.6 1.2.7-.7.7-1.3.1-1.7-.6-.3-1.4-.1-1.7.5zM439.2 549.9c.4 1.3 1.8 1.6 1.9.4 0-.4-.5-.9-1.1-1.2-.7-.2-1.1.2-.8.8zM143.6 550.8c-.3.6-.1 1.4.5 1.7 1.5 1 2.5-.3 1.2-1.6-.7-.7-1.3-.7-1.7-.1zM173.5 551.1c-1 1.5.3 2.5 1.6 1.2.7-.7.7-1.3.1-1.7-.6-.3-1.4-.1-1.7.5zM202 551c0 .5.5 1 1 1 .6 0 1-.5 1-1 0-.6-.4-1-1-1-.5 0-1 .4-1 1zM231 551.5c0 .9.5 1.5 1.1 1.3.6-.2 1.1-.8 1.1-1.3s-.5-1.1-1.1-1.3c-.6-.2-1.1.4-1.1 1.3zM409.2 550.9c.2.7.7 1.2 1.1 1.2 1.2-.1.9-1.5-.3-2-.7-.2-1.1.2-.8.8zM53 552c0 .5.5 1 1 1 .6 0 1-.5 1-1 0-.6-.4-1-1-1-.5 0-1 .4-1 1zM83.5 551.9c-.6 1.1.9 2.3 1.9 1.4.9-.9.7-2.3-.3-2.3-.6 0-1.2.4-1.6.9zM114 553c0 .5.7 1 1.6 1 .8 0 1.2-.5.9-1-.3-.6-1-1-1.6-1-.5 0-.9.4-.9 1zM320 554c0 .5.5 1 1 1 .6 0 1-.5 1-1 0-.6-.4-1-1-1-.5 0-1 .4-1 1zM261.2 555.1c.2.6.8 1 1.3 1s1.1-.4 1.3-1c.2-.6-.4-1.1-1.3-1.1s-1.5.5-1.3 1.1zM291 556c0 .5.7 1 1.5 1s1.5-.5 1.5-1c0-.6-.7-1-1.5-1s-1.5.4-1.5 1zM540.5 556.1c-1 1.5.3 2.5 1.6 1.2.7-.7.7-1.3.1-1.7-.6-.3-1.4-.1-1.7.5zM513 556.9c0 .6.5 1.3 1 1.6.6.3 1-.1 1-.9 0-.9-.4-1.6-1-1.6-.5 0-1 .4-1 .9zM28.6 557.7c-1.1 1.1-.6 2.3.9 2.3.8 0 1.5-.4 1.5-.9 0-1.3-1.6-2.2-2.4-1.4zM565 560c0 .5.5 1 1 1 .6 0 1-.5 1-1 0-.6-.4-1-1-1-.5 0-1 .4-1 1zM484 561.4c0 .9.5 1.6 1 1.6.6 0 1-.4 1-.9 0-.6-.4-1.3-1-1.6-.5-.3-1 .1-1 .9zM586 563c0 .5.5 1 1 1 .6 0 1-.5 1-1 0-.6-.4-1-1-1-.5 0-1 .4-1 1zM.7 563.7c-1.2 1.2-.7 2.2.8 1.7.8-.4 1.5-1 1.5-1.5 0-1.1-1.4-1.2-2.3-.2zM365.5 563.9c-.6 1.1.9 2.3 1.9 1.4.9-.9.7-2.3-.3-2.3-.6 0-1.2.4-1.6.9zM454 564c0 .5.7 1 1.5 1s1.5-.5 1.5-1c0-.6-.7-1-1.5-1s-1.5.4-1.5 1zM186 565.6c0 .8.5 1.2 1 .9.6-.3 1-1 1-1.6 0-.5-.4-.9-1-.9-.5 0-1 .7-1 1.6zM395 565.5c0 .8.5 1.5 1 1.5.6 0 1-.7 1-1.5s-.4-1.5-1-1.5c-.5 0-1 .7-1 1.5zM425 565c0 .5.5 1 1 1 .6 0 1-.5 1-1 0-.6-.4-1-1-1-.5 0-1 .4-1 1zM67 566.5c0 .9.5 1.5 1.1 1.3.6-.2 1.1-.8 1.1-1.3s-.5-1.1-1.1-1.3c-.6-.2-1.1.4-1.1 1.3zM97 566.6c0 .8.5 1.2 1 .9.6-.3 1-1 1-1.6 0-.5-.4-.9-1-.9-.5 0-1 .7-1 1.6zM127 566c0 .5.4 1 .9 1 .6 0 1.3-.5 1.6-1 .3-.6-.1-1-.9-1-.9 0-1.6.4-1.6 1zM216 566.5c0 .9.5 1.5 1.1 1.3.6-.2 1.1-.8 1.1-1.3s-.5-1.1-1.1-1.3c-.6-.2-1.1.4-1.1 1.3zM157 567c0 .5.7 1 1.5 1s1.5-.5 1.5-1c0-.6-.7-1-1.5-1s-1.5.4-1.5 1zM246 567.5c0 .8.5 1.5 1 1.5.6 0 1-.7 1-1.5s-.4-1.5-1-1.5c-.5 0-1 .7-1 1.5zM335 567.5c0 .9.5 1.5 1.1 1.3.6-.2 1.1-.8 1.1-1.3s-.5-1.1-1.1-1.3c-.6-.2-1.1.4-1.1 1.3zM40 570.1c0 .5.5.7 1 .4.6-.3 1-.8 1-1.1 0-.2-.4-.4-1-.4-.5 0-1 .5-1 1.1zM307 570.5c0 .8.2 1.5.4 1.5s.6-.7 1-1.5c.3-.8.1-1.5-.4-1.5-.6 0-1 .7-1 1.5zM275.5 570.9c-.6 1.1.9 2.3 1.9 1.4.9-.9.7-2.3-.3-2.3-.6 0-1.2.4-1.6.9zM525.7 571.6c-.8.8.1 2.4 1.4 2.4.5 0 .9-.7.9-1.5 0-1.5-1.2-2-2.3-.9zM553 572c0 .5.5 1 1.1 1 .5 0 .7-.5.4-1-.3-.6-.8-1-1.1-1-.2 0-.4.4-.4 1zM500 574.5c0 .9.5 1.5 1.1 1.3.6-.2 1.1-.8 1.1-1.3s-.5-1.1-1.1-1.3c-.6-.2-1.1.4-1.1 1.3zM13.5 574.9c-.6 1.1.9 2.3 1.9 1.4.9-.9.7-2.3-.3-2.3-.6 0-1.2.4-1.6.9zM470.2 575.9c.4 1.3 1.8 1.6 1.9.4 0-.4-.5-.9-1.1-1.2-.7-.2-1.1.2-.8.8zM440.7 576.6c-.8.8.1 2.4 1.4 2.4.5 0 .9-.7.9-1.5 0-1.5-1.2-2-2.3-.9zM350.5 579.1c-1 1.5.3 2.5 1.6 1.2.7-.7.7-1.3.1-1.7-.6-.3-1.4-.1-1.7.5zM380 579.5c0 .9.5 1.5 1.1 1.3.6-.2 1.1-.8 1.1-1.3s-.5-1.1-1.1-1.3c-.6-.2-1.1.4-1.1 1.3zM50 580c0 .5.7 1 1.5 1s1.5-.5 1.5-1c0-.6-.7-1-1.5-1s-1.5.4-1.5 1zM110.7 579.6c-.8.8.1 2.4 1.4 2.4.5 0 .9-.7.9-1.5 0-1.5-1.2-2-2.3-.9zM141.7 579.6c-.8.8.1 2.4 1.4 2.4.5 0 .9-.7.9-1.5 0-1.5-1.2-2-2.3-.9zM200.6 579.7c-1.1 1.1-.6 2.3.9 2.3.8 0 1.5-.4 1.5-.9 0-1.3-1.6-2.2-2.4-1.4zM410.2 580.1c.2.6.8 1 1.3 1s1.1-.4 1.3-1c.2-.6-.4-1.1-1.3-1.1s-1.5.5-1.3 1.1zM81.6 580.9c-.4.7-.5 1.5-.2 1.8.9.9 1.9-.4 1.4-1.8-.4-1.1-.6-1.1-1.2 0zM171 581c0 .5.5 1 1 1 .6 0 1-.5 1-1 0-.6-.4-1-1-1-.5 0-1 .4-1 1zM230.6 580.7c-1.1 1.1-.6 2.3.9 2.3.8 0 1.5-.4 1.5-.9 0-1.3-1.6-2.2-2.4-1.4zM24 584c0 .5.4 1 .9 1 .6 0 1.3-.5 1.6-1 .3-.6-.1-1-.9-1-.9 0-1.6.4-1.6 1zM260.2 583.9c.2.7.7 1.2 1.1 1.2 1.2-.1.9-1.5-.3-2-.7-.2-1.1.2-.8.8zM291.6 583.7c-1.1 1.1-.6 2.3.9 2.3.8 0 1.5-.4 1.5-.9 0-1.3-1.6-2.2-2.4-1.4zM320.7 583.6c-.8.8.1 2.4 1.4 2.4.5 0 .9-.7.9-1.5 0-1.5-1.2-2-2.3-.9zM540.7 583.6c-.8.8.1 2.4 1.4 2.4.5 0 .9-.7.9-1.5 0-1.5-1.2-2-2.3-.9zM586 584.5c0 .8.5 1.5 1 1.5.6 0 1-.7 1-1.5s-.4-1.5-1-1.5c-.5 0-1 .7-1 1.5zM569 585c0 .5.5 1 1 1 .6 0 1-.5 1-1 0-.6-.4-1-1-1-.5 0-1 .4-1 1zM514 587.6c0 .8.5 1.2 1 .9.6-.4.8-1.1.5-1.6-.9-1.4-1.5-1.1-1.5.7zM486.7 588.6c-.8.8.1 2.4 1.4 2.4.5 0 .9-.7.9-1.5 0-1.5-1.2-2-2.3-.9zM457 591.5c0 .8.5 1.5 1 1.5.6 0 1-.7 1-1.5s-.4-1.5-1-1.5c-.5 0-1 .7-1 1.5zM426.6 592.8c-.3.6-.1 1.4.5 1.7 1.5 1 2.5-.3 1.2-1.6-.7-.7-1.3-.7-1.7-.1zM365.7 593.6c-.8.8.1 2.4 1.4 2.4.5 0 .9-.7.9-1.5 0-1.5-1.2-2-2.3-.9zM599.1 594.6c0 1.1.3 1.4.6.6.3-.7.2-1.6-.1-1.9-.3-.4-.6.2-.5 1.3zM125 595.5c0 .8.5 1.5 1 1.5.6 0 1-.7 1-1.5s-.4-1.5-1-1.5c-.5 0-1 .7-1 1.5zM184 594.9c0 .6.5 1.3 1 1.6.6.3 1-.1 1-.9 0-.9-.4-1.6-1-1.6-.5 0-1 .4-1 .9zM396 595c0 .5.5 1 1 1 .6 0 1-.5 1-1 0-.6-.4-1-1-1-.5 0-1 .4-1 1zM35.5 596c-.3.5-.2 1 .4 1 .5 0 1.3-.5 1.6-1 .3-.6.2-1-.4-1-.5 0-1.3.4-1.6 1zM64 596c0 .5.7 1 1.5 1s1.5-.5 1.5-1c0-.6-.7-1-1.5-1s-1.5.4-1.5 1zM94.5 595.9c-.6 1.1.9 2.3 1.9 1.4.9-.9.7-2.3-.3-2.3-.6 0-1.2.4-1.6.9zM155.6 595.9c-.4.5-.2 1.2.3 1.5.5.4 1.2.2 1.5-.3.4-.5.2-1.2-.3-1.5-.5-.4-1.2-.2-1.5.3zM214.7 595.6c-.8.8.1 2.4 1.4 2.4.5 0 .9-.7.9-1.5 0-1.5-1.2-2-2.3-.9zM335 596c0 .5.7 1 1.6 1 .8 0 1.2-.5.9-1-.3-.6-1-1-1.6-1-.5 0-.9.4-.9 1zM245 598c0 .5.5 1 1 1 .6 0 1-.5 1-1 0-.6-.4-1-1-1-.5 0-1 .4-1 1zM555.8 599.7c.7.3 1.6.2 1.9-.1.4-.3-.2-.6-1.3-.5-1.1 0-1.4.3-.6.6z"/></svg>